<svg xmlns="http://www.w3.org/2000/svg" viewBox="0 0 1200 1200"><defs><style>.cls-1{fill:#f7b503;}.cls-2{fill:#243550;}.cls-3{fill:#eff8f6;}.cls-4{fill:#d0eae3;}.cls-5{fill:#875d34;}.cls-6{fill:#12100b;}.cls-7{fill:#71c1ac;}.cls-8,.cls-9{fill:#fff;}.cls-9{fill-rule:evenodd;}.cls-10{fill:#9ea5b1;}.cls-11{fill:#ccc;}.cls-12{fill:#705126;}.cls-13{fill:#556277;}.cls-14{fill:#16263e;}.cls-15{fill:none;stroke:#1b1c09;stroke-miterlimit:10;stroke-width:6.88px;}.cls-16{fill:#1b1c09;}.cls-17{fill:#704526;}.cls-18{fill:#3c4b63;}.cls-19{fill:#f2f2f2;}.cls-20{fill:#905e51;}.cls-21{fill:#140400;}</style></defs><g id="Calque_2" data-name="Calque 2"><circle class="cls-1" cx="315.35" cy="281.87" r="12.63"/><circle class="cls-1" cx="995.35" cy="799.87" r="12.63"/></g><g id="Calque_1" data-name="Calque 1"><path class="cls-2" d="M1048.86,698.07c-.78,1.6-1.61,3.17-2.43,4.73-40.08,76.55-130.65,111.89-221.7,88.27-33.78-8.77-62.91-26-97.25-39.38-3-1.17-6-2.26-9-3.34-48.63-17.46-108.81-25.53-206.28,8C360.63,808.44,232.29,827,167.77,729.63c-.82-1.17-1.61-2.38-2.34-3.64-8.73-13.81-16.2-29.88-22.32-48.42-17.8-53.62-.39-115,38-174,1.22-1.86,2.47-3.77,3.73-5.64C212.32,457.18,249.61,417.76,292,383c4.56-3.73,8.94-7.64,13.2-11.72,1.3-1.13,2.6-2.39,3.86-3.69,23.88-23.45,42.55-50.76,58.44-79l2.22-3.91c29.31-53.05,49.41-109,76.46-149.27,2.21-3.3,4.47-6.47,6.86-9.55,1-1.35,2-2.69,3.12-4a181.69,181.69,0,0,1,28-28.18c1.17-1,2.39-2,3.6-2.86C515.29,69.63,548.12,57,584.11,53.18l5.43-.53C645.33,48.1,708.29,64.29,770.46,102c1.65,1,3.26,2,4.91,3,40.72,25.4,81,60.13,118.62,104.29,1.17,1.34,2.34,2.73,3.51,4.12,33.74,40.34,65.3,88.36,93,144.24.7,1.34,1.35,2.69,2,4q14.19,29,27,60.87c.52,1.34,1,2.69,1.61,4,6.42,16.41,12.59,33.34,18.36,50.88.48,1.35.92,2.74,1.35,4.08,6.34,19.41,12.29,39.43,17.71,60.18C1074.69,603.59,1069,656.56,1048.86,698.07Z"/><path class="cls-3" d="M644.2,1005.57c-221.58,0-401.21,22.32-401.21,49.85,0,10.29,25.13,19.86,68.16,27.8-8.71,4.62-13.49,9.6-13.49,14.81,0,23.54,97.2,42.62,217.09,42.62,109.36,0,199.78-15.88,214.85-36.52,180.55-4.87,315.82-24.82,315.82-48.71C1045.42,1027.89,865.79,1005.57,644.2,1005.57Z"/><ellipse class="cls-3" cx="808.74" cy="1139.04" rx="50.15" ry="12.86"/><path class="cls-4" d="M866.92,1056.09c0,17.39-110.51,31.49-246.84,31.49s-246.84-14.1-246.84-31.49,110.52-31.5,246.84-31.5S866.92,1038.69,866.92,1056.09Z"/><path class="cls-5" d="M747.8,987.12s5.86,18.87,16.64,28.88,26.19,15.41,29.66,20.8-23.88,14.63-43.9,8.86-28.11-11.94-37-15c0,0-2.7-16.58,5.78-25s6.42-39.78,6.42-39.78H750.2Z"/><path class="cls-6" d="M751.77,997.12s-9.66,1.19-16.59,4.46.26,15.39.26,15.39l-19.88-7.79s-5.8,15.3-2.33,21.46,25.29,10.51,25.29,10.51,42.21,17.83,54.78,1.16c1.71-2.27,2-5.24-.38-6.81C783.57,1029.3,760.38,1012.87,751.77,997.12Z"/><path class="cls-6" d="M838.69,220.51s3.14-40-45.88-29.72-41,90.65-75.56,103.84c0,0-33.43,15.31-37.43,16.4,0,0,21.49,7.16,47.63-7.89L679.82,333l132.82,50.57s23.79-121.33,26.09-131.66S838.69,220.51,838.69,220.51Z"/><path class="cls-7" d="M744.55,648.58l31.09,149.73L760.1,986.76s-35.33,14.63-46.9,4.3L700.77,800.89,670,681.23,642.62,996.75s-45.42,22.34-45.11-4c0-4.3-9.8-342.64-9.8-342.64Z"/><path class="cls-8" d="M748.68,338l-32.37-6.42A79.07,79.07,0,0,0,636,364l-48.32,41.74,62.07,52.56-34.36,92.93-27.71,98.89,161,14.38,8.41-138.17,20.34-25.6s45.7,12.92,57.27,5.21c0,0,5.15-58.51,3.75-93.58s-54.36-60-54.36-60Z"/><path class="cls-9" d="M603.11,647.43a140.17,140.17,0,0,0,57.71,10.86q16.53-39.22,35.6-77.31a557.77,557.77,0,0,1-2.08,78.41,97.2,97.2,0,0,0,54,2.79"/><path class="cls-10" d="M602.65,649.09a142.27,142.27,0,0,0,45,10.63q6.58.46,13.17.29a1.81,1.81,0,0,0,1.66-1.26q12.81-30.39,27.17-60.09,4.07-8.45,8.26-16.81L694.7,581a557.64,557.64,0,0,1-.68,61.19q-.57,8.63-1.4,17.22a1.73,1.73,0,0,0,1.26,1.66,99.32,99.32,0,0,0,55,2.79c2.16-.5,1.25-3.82-.91-3.32a95.92,95.92,0,0,1-53.13-2.79l1.27,1.66a557.12,557.12,0,0,0,2.57-61.14q-.11-8.64-.49-17.27c-.07-1.6-2.4-2.48-3.2-.87q-14.91,29.8-28.3,60.33-3.81,8.67-7.48,17.39l1.66-1.26a139.84,139.84,0,0,1-57.25-10.8,1.72,1.72,0,0,0-.92,3.32Z"/><ellipse class="cls-11" cx="492.05" cy="362.56" rx="46.13" ry="47.91"/><polygon class="cls-12" points="638.72 448.95 606.54 480.21 480.67 523.34 473.12 502.31 580.16 444.43 600.69 416.75 638.72 448.95"/><polygon class="cls-5" points="758.14 311.03 737.45 350.31 744.69 404.69 782.34 362.58 795.67 333.13 758.14 311.03"/><path class="cls-4" d="M530.29,466.07,468,479.67a56.32,56.32,0,0,0-31.19,18.88L398,545l66.15,36.72L445.4,738.47s76.48-30.59,104-13,59.66-3.06,59.66-3.06,12.56-104,9.34-114,12.08-52.78,12.08-52.78l13,1.53s8.15-34.88,19.22-57.62l-71.77-24.75a89.55,89.55,0,0,0-19.59-4.37Z"/><path class="cls-12" d="M755,317s11.21,27.64,37.8,22.46c0,0-28,34-42-14.49Z"/><path class="cls-13" d="M609.07,722.41s115.49,65,130,83.37,128.49,85.66,128.49,85.66-4.59,35.95-23,47.42l-146.08-78.3L492.05,760.65S591.7,712.48,609.07,722.41Z"/><path class="cls-5" d="M828.8,508,820,550.69s-31.66,32.09-89.47,29.73c0,0-35.78,21.21-62.28,5.55s22.15-10,22.15-10l24.43-12.18s-27.91,1.09-21.89-5.54,24.33-3.6,24.33-3.6,10.14-.19,15.55,7l47.52-28.11,3.07-31.28Z"/><path class="cls-7" d="M686.78,905.89c0,78.87-71.18,149.75-180.36,149.75s-177-66.41-177-145.28,63.09-154.22,172.27-154.22S686.78,827,686.78,905.89Z"/><path class="cls-5" d="M672.81,972.15v51.58s49.23,35.82,62,40,17.63,10.3-16.75,10.74-42.76-4.85-69.21-6.61-4.4-37.91-4.4-37.91l-8.61-54.66Z"/><path class="cls-14" d="M686.78,1033.68s-20.09,13.34-22,35.8c0,0-24.67-3.6-27.82-8.42a6.09,6.09,0,0,0,0,8.42c3.89,4.39,79.61,14.53,107.43,7.48,0,0,4.46-5.29,3.14-10.14S729.52,1063.06,686.78,1033.68Z"/><path class="cls-5" d="M865.73,901.13l27.93,17.28s55.23-25.61,65.05-34.77,17.57-10.41,1.25,19.86-25,35-39.41,57.27-35.28-14.57-35.28-14.57l-34.42-12.62Z"/><path class="cls-14" d="M909.15,911.05s1.89,24,20.6,36.6c0,0-15.13,19.8-20.87,20.22a6.09,6.09,0,0,0,7.35,4.09c5.73-1.27,51.4-62.52,58.75-90.26,0,0-2.46-6.47-7.34-7.67S955.59,888,909.15,911.05Z"/><path class="cls-15" d="M949.56,930l-14.07,20L549.69,611a6.55,6.55,0,0,1,3-11.34l59.89-12.38a16.06,16.06,0,0,1,14.87,4.65L924.34,903.53"/><path class="cls-5" d="M829.89,220.48s-44.39-19.21-70.34,46.09C739.27,317.63,771.47,337,771.47,337s25.92,20.79,65.7-36.46C880.53,238.09,829.89,220.48,829.89,220.48Z"/><ellipse class="cls-6" cx="783.93" cy="275.42" rx="3.84" ry="2.18" transform="translate(207.06 873.44) rotate(-65.39)"/><ellipse class="cls-6" cx="816.27" cy="293.1" rx="3.84" ry="2.18" transform="translate(209.86 913.17) rotate(-65.39)"/><path class="cls-16" d="M818.71,277.23a6.45,6.45,0,0,1,.75-.22l.38-.08c.31-.07-.62.05-.15,0,.26,0,.51,0,.77,0a4.2,4.2,0,0,0,.78,0c-.17,0-.6-.1-.15,0l.38.08c.25.06.5.14.74.22.09,0,.53.21.13,0s.06,0,.11.07a5.38,5.38,0,0,1,.66.38l.24.17c.44.3-.45-.4-.06,0l.52.5c.17.18.59.8.16.14l.37.54c.13.21.24.42.35.63a2,2,0,0,0,.16.33c-.33-.55-.15-.35-.08-.14s.15.46.21.69.17,1.13.07.24a2.83,2.83,0,0,0,.75,1.83,2.67,2.67,0,0,0,1.83.75c1.27-.05,2.75-1.14,2.58-2.58a9.84,9.84,0,0,0-4.37-7.42,9.8,9.8,0,0,0-8.5-1.11,2.58,2.58,0,0,0,1.37,5Z"/><path class="cls-16" d="M785.93,260.38a6.29,6.29,0,0,1,.74-.22l.38-.08c.32-.07-.62.05-.15,0,.26,0,.52,0,.78,0a3.35,3.35,0,0,0,.77,0c-.16,0-.6-.09-.15,0l.38.08a6.45,6.45,0,0,1,.75.22c.09,0,.53.2.12,0s.06,0,.12.07a6.24,6.24,0,0,1,.66.38l.24.17c.43.3-.46-.4-.07-.05.18.17.36.32.53.5s.58.8.16.14c.11.18.25.35.36.54s.25.42.36.63a3.31,3.31,0,0,0,.15.33c-.33-.55-.15-.35-.07-.14a5,5,0,0,1,.2.69c.06.21.18,1.13.07.24a2.9,2.9,0,0,0,.76,1.83,2.64,2.64,0,0,0,1.82.75c1.27-.05,2.75-1.14,2.59-2.58a10.5,10.5,0,0,0-1.34-4.23,10.26,10.26,0,0,0-3-3.19,9.82,9.82,0,0,0-8.51-1.11,2.58,2.58,0,0,0,1.38,5Z"/><path class="cls-17" d="M784.12,300.88a10.7,10.7,0,0,0,4.15,5,10.32,10.32,0,0,0,6,1.65,1.72,1.72,0,1,0,0-3.44,10.1,10.1,0,0,1-1.23,0c-.42,0,.38.07,0,0l-.31-.06-.6-.14c-.2,0-.39-.11-.59-.18l-.29-.11c-.38-.14.23.11,0,0a11.28,11.28,0,0,1-1.14-.61c-.18-.11-.35-.23-.52-.35s.17.14,0,0l-.24-.2a8,8,0,0,1-.88-.87,3.22,3.22,0,0,1-.24-.28c-.18-.21,0,0,0,.06s-.34-.49-.38-.56-.21-.36-.31-.54-.09-.18-.14-.28-.19-.45,0,0a1.77,1.77,0,0,0-2.12-1.2,1.74,1.74,0,0,0-1.2,2.12Z"/><path class="cls-17" d="M807.34,280.84c-5.76,4.77-8.92,12.19-9.24,19.58-.1,2.21,3.34,2.21,3.44,0a23.64,23.64,0,0,1,8.23-17.15,1.72,1.72,0,0,0,0-2.43,1.76,1.76,0,0,0-2.43,0Z"/><path class="cls-17" d="M771.32,297.21a28.26,28.26,0,0,0,14.85,26.54c2,1,3.7-1.95,1.73-3a24.92,24.92,0,0,1-13.14-23.57c.16-2.21-3.28-2.2-3.44,0Z"/><path class="cls-17" d="M768.1,319.78a17.63,17.63,0,0,0,8.65,8.63,1.77,1.77,0,0,0,2.36-.62,1.73,1.73,0,0,0-.62-2.35,15.79,15.79,0,0,1-2.47-1.39,3.26,3.26,0,0,1-.6-.43c.14.14.18.14,0,0l-.28-.23a13.57,13.57,0,0,1-1-1c-.32-.32-.63-.65-.92-1l-.24-.28-.11-.15c-.08-.1-.05-.06.08.11,0-.19-.33-.44-.44-.6a15.79,15.79,0,0,1-1.39-2.47,1.74,1.74,0,0,0-2.36-.62,1.77,1.77,0,0,0-.61,2.36Z"/><path class="cls-6" d="M799.51,220.51s-7.7,21.44,19.65,40.38,16.16,42.25,16.16,42.25,18.91-5.08,23.47-45.06S816,202.22,799.51,220.51Z"/><path class="cls-6" d="M799.51,220.51s1.77,26-3.14,29.16-35.61,14-35.61,14S769.13,226.38,799.51,220.51Z"/><path class="cls-5" d="M402.52,547.49l-25,40.7a14.18,14.18,0,0,0,8.5,21.11c19.44,5.17,56.63,8.47,117.7-10,0,0,17.29,11.35,36.07,3s11.12,4.65,11.12,4.65,9.95,1.53,16.83-9.18,1.53-28.3-11.47-29.07S510,580.42,510,580.42l-76.92-16Z"/><path class="cls-5" d="M660.3,502.31l47.52,33.56a21.69,21.69,0,0,1,8.89,22.7h0a21.7,21.7,0,0,1-19.3,16.82l-58.51,5s0,12.59-17.59,5-2.9,7.72-2.9,7.72-20.81,9.18-27.69,0-14.54-25.24,0-30.59,38.58-3.45,38.58-3.45l15.6-14.93S650.8,513.56,660.3,502.31Z"/><path class="cls-18" d="M564.54,731.58,659.77,777a41.26,41.26,0,0,1,23.49,37.23V986.28l-59.36,15.3-19.29-137.1a28.89,28.89,0,0,0-23.3-25.3C535.41,830.38,435,795.85,450,736.73,450,736.73,526.13,701.75,564.54,731.58Z"/><path class="cls-5" d="M512.39,439.39,510,486.84l16.51,14.44a20.27,20.27,0,0,0,33.57-13.83h0l-4.3-13,4.3-21.37Z"/><ellipse class="cls-5" cx="583.3" cy="409.17" rx="13.22" ry="4.92" transform="translate(42.97 873.61) rotate(-75.73)"/><path class="cls-5" d="M538.85,355.28s47.61-2.71,45.89,44.9-19.5,74.57-58.51,53.35S497,357.41,538.85,355.28Z"/><path class="cls-19" d="M578.72,373.75s-26.1,7.42-48.47,0,2.57,48-27.11,46.67l9.49,19.47a1.56,1.56,0,0,1-2.29,2c-7.42-5.19-21.39-19.45-21.39-53.15,0-45.89,47.61-56.79,68.26-48.76s27.58,32.12,27.58,47.61Z"/><ellipse class="cls-5" cx="507.15" cy="410.69" rx="9.9" ry="14.39"/><path class="cls-16" d="M537.65,390.47l.23-.2c.07-.07.43-.35.08-.08s.18-.11.28-.17c.36-.23.76-.39,1.11-.6-.16.09-.54.21-.14.06l.28-.1.57-.17.66-.15L541,389c-.17.05-.62.07-.18,0a10.78,10.78,0,0,1,1.27,0l.59,0c.37,0-.17,0-.25,0,.12,0,.25,0,.37.06a8.32,8.32,0,0,1,1.21.33l.28.11c-.09,0-.53-.25-.21-.09l.66.34a2.62,2.62,0,0,0,2.64-4.52A11.68,11.68,0,0,0,534,386.77a2.64,2.64,0,0,0,0,3.7,2.68,2.68,0,0,0,3.7,0Z"/><path class="cls-16" d="M575.26,389.06a3.28,3.28,0,0,1,.27-.38l-.41.52a5.36,5.36,0,0,1,.83-.82l-.53.4a5.45,5.45,0,0,1,1.12-.65l-.63.26a5.38,5.38,0,0,1,1.25-.34l-.7.09a4.82,4.82,0,0,1,1.2,0l-.7-.1a5.51,5.51,0,0,1,1.28.35l-.62-.27a5.42,5.42,0,0,1,1.14.67l-.53-.41a4.74,4.74,0,0,1,.78.77,2.63,2.63,0,0,0,3.7,0,2.59,2.59,0,0,0,.76-1.85,3,3,0,0,0-.76-1.86,7.39,7.39,0,0,0-6-2.56,7.73,7.73,0,0,0-6,3.54,2.63,2.63,0,0,0,.94,3.58,2.67,2.67,0,0,0,3.58-.94Z"/><path class="cls-16" d="M575.13,401.21l-.28,3.48a2,2,0,0,0,.23,1,2.35,2.35,0,0,0,1.38,1.38,2.06,2.06,0,0,0,1,.23,2.65,2.65,0,0,0,1.85-.77l.41-.53a2.67,2.67,0,0,0,.36-1.32l.27-3.48a1.94,1.94,0,0,0-.22-1,2.09,2.09,0,0,0-.54-.84,2.06,2.06,0,0,0-.85-.54,2,2,0,0,0-1-.23,2.65,2.65,0,0,0-1.85.77l-.41.53a2.57,2.57,0,0,0-.36,1.32Z"/><path class="cls-16" d="M541.12,401.67v3.71a2.72,2.72,0,0,0,.77,1.85,1.9,1.9,0,0,0,.84.54,2,2,0,0,0,1,.23,2.65,2.65,0,0,0,1.85-.77,2.72,2.72,0,0,0,.77-1.85v-3.71a2.67,2.67,0,0,0-.77-1.85,1.9,1.9,0,0,0-.84-.54,2,2,0,0,0-1-.23,2.61,2.61,0,0,0-1.85.77,2.72,2.72,0,0,0-.77,1.85Z"/><path class="cls-12" d="M565,396a18.54,18.54,0,0,0,.3,16.49c.51,1,2,.12,1.48-.86a16.75,16.75,0,0,1-.29-14.76c.47-1-1-1.87-1.49-.87Z"/><path class="cls-12" d="M568.19,423.37c.22-.18-.28.2-.33.23l-.57.36-.6.32c-.05,0-.64.28-.36.17a9.71,9.71,0,0,1-1.29.42l-.66.16c-.06,0-.71.11-.38.07a10.61,10.61,0,0,1-2.7,0c.34,0-.32-.06-.38-.08l-.66-.15c-.21-.06-.43-.12-.64-.2s-.65-.25-.38-.13a1.78,1.78,0,0,0-2.36.62,1.74,1.74,0,0,0,.62,2.35,12.87,12.87,0,0,0,13.13-1.72,1.73,1.73,0,0,0,0-2.43,1.77,1.77,0,0,0-2.44,0Z"/><path class="cls-12" d="M565.54,438.92a17.9,17.9,0,0,1-18.67-4.41c-1.54-1.6-4,.84-2.43,2.44a21.35,21.35,0,0,0,22,5.29c2.08-.73,1.19-4.06-.91-3.32Z"/><path class="cls-12" d="M563.29,455.19c.37,2.15-1.25,4-3.06,4.92a17.42,17.42,0,0,1-6.5,1.39c-3.78.26-9.35-.76-9.78-5.46-.1-1.09-1.83-1.1-1.72,0a7.53,7.53,0,0,0,3.68,5.69c2.42,1.51,5.42,1.69,8.19,1.46s5.63-.57,7.9-2.12a6.41,6.41,0,0,0,3-6.34c-.19-1.09-1.85-.63-1.66.46Z"/><path class="cls-12" d="M551,450.13a11.28,11.28,0,0,0,11.35,2.25,1.77,1.77,0,0,0,1.21-2.12,1.75,1.75,0,0,0-2.12-1.2,10.06,10.06,0,0,1-1.18.37l-.58.11s-.35,0-.13,0h-.13a8.53,8.53,0,0,1-1.24,0l-.58,0c-.19,0-.13,0,0,0l-.35-.06a8.62,8.62,0,0,1-1.14-.28l-.55-.19c-.14-.06-.28-.12-.06,0l-.26-.12a10.2,10.2,0,0,1-1-.57l-.3-.21s-.27-.2-.12-.08-.08-.07-.11-.09l-.27-.24a1.72,1.72,0,0,0-2.44,2.43Z"/><path class="cls-12" d="M537.13,415.84a6.44,6.44,0,0,0,8.87,1.62.9.9,0,0,0,.31-1.18.87.87,0,0,0-1.18-.31,4.7,4.7,0,0,1-6.51-1,.89.89,0,0,0-1.18-.31.88.88,0,0,0-.31,1.18Z"/><path class="cls-12" d="M571.27,414.67a6.25,6.25,0,0,0,9,.8c.81-.76-.41-2-1.22-1.22a4.52,4.52,0,0,1-6.32-.44.89.89,0,0,0-1.18-.31.86.86,0,0,0-.31,1.17Z"/><path class="cls-8" d="M440.87,796.5S328.16,889.76,410,993.08C410,993.08,290.59,898.48,440.87,796.5Z"/><path class="cls-20" d="M513.51,444.32a37.73,37.73,0,0,0,40.06,21.27c1.1-.16.63-1.82-.45-1.66A36.5,36.5,0,0,1,515,443.46c-.48-1-2-.13-1.49.86Z"/><path class="cls-12" d="M560.12,462.41s-28.87,12.68-47.49-22.52v21S550.17,486.28,560.12,462.41Z"/><path class="cls-21" d="M740.46,557.1s15.14,12.21,0,23.32l13.45-1.77s9.76-13.28-5.4-26.3Z"/><path class="cls-10" d="M751.15,409.65c.93-2.12,2-4.94,4.45-5.66s3.63,2.05,4.5,3.86l8.15,16.86c.66,1.39,2.75.92,3.14-.41l15.81-54.12c.62-2.13-2.7-3-3.32-.91l-15.81,54.11,3.15-.41-4.93-10.2-2.46-5.11a31.93,31.93,0,0,0-2.23-4.26,6.16,6.16,0,0,0-7.6-2.48c-3,1.23-4.58,4.13-5.82,7-.88,2,2.08,3.77,3,1.74Z"/><path class="cls-10" d="M736.87,405.6c3.56-4.75-1-11.07-6.07-12a17.87,17.87,0,0,0-9.89,1.53c-3.13,1.29-6.24,3-9.66,3.41l1.66,2.18q9.6-27.22,16.57-55.27c.53-2.15-2.79-3.07-3.32-.92q-7,28-16.57,55.28a1.73,1.73,0,0,0,1.66,2.17,27.82,27.82,0,0,0,8-2.39c2.6-1.13,5.26-2.41,8.12-2.71,2.3-.24,4.75.18,6.23,2.09a3.92,3.92,0,0,1,.34,4.86,1.72,1.72,0,0,0,.62,2.35,1.75,1.75,0,0,0,2.35-.61Z"/><path class="cls-10" d="M778.42,504.51l54.86,6.68c1.85.23,3.44-1.74,3.44-3.44,0-2.05-1.58-3.22-3.44-3.44l-54.86-6.69c-1.85-.22-3.45,1.75-3.45,3.44,0,2.05,1.59,3.22,3.45,3.45Z"/><path class="cls-10" d="M588.06,408.06a226.57,226.57,0,0,0,41.34,38.61c4.28,3.1,8.68,6,13.16,8.84a3.45,3.45,0,0,0,3.48-5.95,219.54,219.54,0,0,1-42.71-34.69q-5.42-5.65-10.41-11.67a3.46,3.46,0,0,0-4.86,0,3.5,3.5,0,0,0,0,4.86Z"/><path class="cls-10" d="M754.51,454.23A85.87,85.87,0,0,0,782.83,466c2.16.47,3.08-2.85.91-3.32a83.34,83.34,0,0,1-27.49-11.38c-1.87-1.21-3.6,1.77-1.74,3Z"/><ellipse class="cls-1" cx="510.04" cy="426.91" rx="3.9" ry="4.58"/></g></svg>