<svg xmlns="http://www.w3.org/2000/svg" xmlns:xlink="http://www.w3.org/1999/xlink" viewBox="0 0 1200 1200"><defs><style>.cls-1,.cls-15,.cls-20,.cls-24,.cls-25{fill:none;}.cls-2{fill:#f7b503;}.cls-3{clip-path:url(#clip-path);}.cls-4{fill:#243550;}.cls-5{fill:#b2c1e4;}.cls-6{fill:#eff0f9;}.cls-7{fill:#71c1ac;}.cls-8{fill:#b0ddd1;}.cls-9{fill:#a2b2dc;}.cls-10{fill:#6a83b9;}.cls-11{fill:#516390;}.cls-12{fill:#875d34;}.cls-13,.cls-23{fill:#f5f5f5;}.cls-14{fill:#91cfbe;}.cls-15,.cls-23{stroke:#ddd;stroke-width:1.49px;}.cls-15,.cls-17,.cls-18,.cls-23,.cls-24,.cls-25{stroke-miterlimit:10;}.cls-16{fill:#12100b;}.cls-17{fill:#aaa5a4;stroke:#797675;}.cls-17,.cls-18{stroke-width:1.12px;}.cls-18{fill:#797675;stroke:#aaa5a4;}.cls-19{fill:#fff;}.cls-20{stroke:#fff;stroke-linecap:round;stroke-linejoin:round;stroke-width:1.01px;}.cls-21{fill:#704526;}.cls-22{fill:#1d1d1b;}.cls-24,.cls-25{stroke:#cfcfcf;}.cls-24{stroke-width:1.28px;}.cls-25{stroke-width:1.22px;}.cls-26{fill:#a2a2a2;}</style><clipPath id="clip-path"><path class="cls-1" d="M517.94,604.9l1.33-.91-.93,1.2Zm634.87,103.16c-.3,1.75-.61,3.46-.92,5.17-22,124-86.43,178.46-86.43,178.46H98.9S39.77,782.85,65.77,687.85c.39-1.45.78-2.9,1.22-4.3C84.1,627,132.38,576.06,242.67,556.9c23.72-4.12,45.56-8.06,65.69-11.83,2.84-.57,5.6-1.1,8.36-1.62,70-13.42,118.78-25.39,155.89-39.06h0c2.72-1,5.39-2.06,8-3.07C556.07,471.6,581.85,433,649.42,354.5q7.88-9.13,16.81-17.93c1.31-1.31,2.62-2.58,4-3.81,36.46-34.72,84.86-64.66,137-82,1.4-.48,2.8-1,4.2-1.4,66.83-21.22,139.44-21.52,200.84,15.61,2.32,1.4,4.64,2.85,7,4.38,48.62,32.13,89.59,88.9,114,178.82C1162.53,555.72,1163.75,641.6,1152.81,708.06Z"/></clipPath></defs><g id="Calque_2" data-name="Calque 2"><circle class="cls-2" cx="1076.67" cy="254.19" r="12.63"/></g><g id="Calque_1" data-name="Calque 1"><g class="cls-3"><rect class="cls-4" x="58.28" y="188.96" width="1561.95" height="822.08"/><circle class="cls-5" cx="490.55" cy="344.25" r="61.63"/><circle class="cls-6" cx="490.55" cy="344.25" r="46.79" transform="translate(40.47 739.94) rotate(-76.38)"/><path class="cls-5" d="M494.87,344.25a4.32,4.32,0,1,1-4.32-4.32A4.33,4.33,0,0,1,494.87,344.25Z"/><rect class="cls-5" x="489.12" y="312.37" width="2.87" height="32.75" rx="0.96"/><rect class="cls-5" x="504.05" y="327.88" width="2.87" height="32.75" rx="0.96" transform="translate(161.24 849.74) rotate(-90)"/><circle class="cls-5" cx="448.65" cy="345.12" r="3.45"/><circle class="cls-5" cx="532.45" cy="345.12" r="3.45"/><circle class="cls-5" cx="490.55" cy="303.22" r="3.45"/><circle class="cls-5" cx="490.55" cy="387.02" r="3.45"/><path class="cls-7" d="M254.18,913.37a3.69,3.69,0,0,1-3.66-3.26C242,838.91,246,752.94,262.44,654.59c.71-4.23,1.32-7.91,1.4-8.82a3.69,3.69,0,0,1,7.35-.65c.14,1,0,1.79-1.46,10.7-16.36,97.65-20.35,182.91-11.87,253.41a3.69,3.69,0,0,1-3.23,4.11Zm9.66-267.52a2,2,0,0,0,0,.31C263.86,646.06,263.84,646,263.84,645.85Z"/><path class="cls-8" d="M186.66,667.55a104.84,104.84,0,0,0,23.64,17.22,4,4,0,0,0,5.49-1.36l1.36-2.32c1.36-2.33.19-5.65-2.45-7l-.06,0c-18.18-9-22.53-21.78-16.69-34.2,2.18-4.63,7.11-10.37,9.66-14.46,4.2,10.39,10.82,20.11,21.64,25.42a4.44,4.44,0,0,0,6.55-3.16,6,6,0,0,0-3-6c-12.93-7.43-17.58-25.46-8.4-36.08q2.84-3.29,5.69-6.24c2.33,5.64,10.18,13,14.52,16.71a5.12,5.12,0,0,0,5.8.88c2.85-1.57,3-5.78.37-8.36l-.94-.9c-8.35-8.06-4.37-22.63,6.53-23.85,9.19-1,19.73-5.58,26-14.49l-28.34,160c-.11-.09-7.36,2.18-7.48,2.1C198.63,730.63,175.72,710,186.66,667.55Z"/><path class="cls-8" d="M336.93,704.31A91.07,91.07,0,0,1,309.4,709a4.6,4.6,0,0,1-4.57-3.82l-.45-2.76a4.54,4.54,0,0,1,4.61-5.24h.06c19.72.29,28.05-9.4,26.91-23.53-.43-5.27-3-12.84-3.95-17.79-7.38,7.56-16.74,13.37-28.47,13.16a5.06,5.06,0,0,1-.18-10.11c14.39-.74,24.77-15.1,19.95-29.14-1-2.9-2-5.69-3.09-8.39-4.05,4.07-13.74,7.1-19,8.51a5.29,5.29,0,0,1-5.62-1.91,5.05,5.05,0,0,1,2.5-7.84l1.17-.39c10.39-3.47,11.68-18.7,2.1-24.93-8.07-5.26-16.2-14.36-18.94-25.49l-28.34,160c.14,0,6,5.45,6.15,5.43C304.55,756.54,332.55,748.37,336.93,704.31Z"/><path class="cls-7" d="M256.6,934.28a3.7,3.7,0,0,1-3.65-3.13c-9.69-63,36-167.7,37.95-172.12a3.7,3.7,0,1,1,6.77,3c-.47,1.06-46.77,107.13-37.4,168a3.7,3.7,0,0,1-3.1,4.22A3.64,3.64,0,0,1,256.6,934.28Z"/><path class="cls-7" d="M254.89,876.15a3.69,3.69,0,0,1-3.69-3.59c-2.54-85.78-19.83-111.44-29.91-119.11-6.38-4.85-11.21-3.74-11.41-3.69a3.73,3.73,0,0,1-4.5-2.63,3.68,3.68,0,0,1,2.52-4.5c.82-.23,8.26-2.09,17.37,4.56,13.81,10.09,30.8,40,33.32,125.15a3.7,3.7,0,0,1-3.59,3.8Z"/><path class="cls-9" d="M128.89,1004.94H385a3.79,3.79,0,0,0,3.77-3.78h0a3.79,3.79,0,0,0-3.77-3.77H128.89a3.79,3.79,0,0,0-3.78,3.77h0A3.79,3.79,0,0,0,128.89,1004.94Z"/><path class="cls-10" d="M223.12,902.59h74.14a35.54,35.54,0,0,1,35.54,35.54v47a12.21,12.21,0,0,1-12.21,12.21H199.79a12.21,12.21,0,0,1-12.21-12.21v-47A35.54,35.54,0,0,1,223.12,902.59Z" transform="translate(520.38 1899.98) rotate(180)"/><path class="cls-11" d="M216.8,997.39h86.79c-56.68-3.32-97.25-28.94-116-84.76v55.54A29.23,29.23,0,0,0,216.8,997.39Z"/><path class="cls-7" d="M262,734a73.79,73.79,0,0,0,8.23,22.84,3.48,3.48,0,0,0,4.89,1.07l2.31-1.3c2.32-1.31,3.29-4.39,2-6.46l0,0c-8.69-14.21-4.86-26,6.44-33.54,4.22-2.81,11.12-5.42,15.31-7.65-2.61,9.85-3,20.12,2.16,28.54,1.4,2.26,4.6,2.26,6.69.06a5.34,5.34,0,0,0,1.13-5.91c-5.61-10.93.92-27,13.73-31.79q4-1.49,7.74-2.7c-1.37,5.36.47,14.21,1.65,18.87a3.78,3.78,0,0,0,3.88,3,5.6,5.6,0,0,0,4.92-6.47l-.2-1.07c-1.81-9.64,9.29-19.59,18.17-16.29a36.47,36.47,0,0,0,27.65-1.27L278.44,809.21c0-.11-6.76-1.15-6.8-1.26C236,788.52,230.2,763.26,262,734Z"/><path class="cls-7" d="M354.73,821.79a74.65,74.65,0,0,1-23.34-7,3.45,3.45,0,0,1-1.31-4.81l1.19-2.36a4.91,4.91,0,0,1,6.38-2.33l0,0c14.7,7.94,26.35,3.55,33.35-8.06,2.61-4.33,4.88-11.32,6.91-15.6-9.75,3.08-20,4-28.75-.74-2.34-1.28-2.49-4.46-.39-6.64a5.37,5.37,0,0,1,5.88-1.41c11.25,5,27-2.25,31.22-15.23q1.29-4,2.33-7.83c-5.31,1.63-14.28.24-19-.7a3.76,3.76,0,0,1-3.17-3.71,5.61,5.61,0,0,1,6.24-5.21l1.1.15c9.75,1.32,19.19-10.21,15.44-18.88a36,36,0,0,1-.09-27.54L278.44,809.21c.12,0,1.49,6.66,1.61,6.7C301.31,850.4,326.94,854.89,354.73,821.79Z"/><path class="cls-7" d="M97.42,661c5.54,9.57,5.71,20.93,3.28,29.54-2.87,10.2,8.46,20.24,18.56,16.45l1.13-.43c3.23-1.21,6.86.83,7.2,4.07a4.66,4.66,0,0,1-2.87,4.74c-4.87,2.16-14.13,5.85-19.92,5.39q1.56,3.84,3.41,7.83c6,12.88,23.49,16.83,34.69,8.69a5.45,5.45,0,0,1,6.36.08,4.53,4.53,0,0,1,.4,7.21c-8.57,7.22-19.5,8.73-30.13,7.8,2.66,4.09,5.91,11,9.18,15,8.78,10.73,21.57,12.59,36,.51l0,0a4.85,4.85,0,0,1,7,.94l1.54,2.24a4,4,0,0,1-.79,5.47,88.77,88.77,0,0,1-23.67,13.24c33.28,28.68,59.67,17.61,77.8-24.52.12-.07.74-7.5.86-7.57s7-2.88,7-3c35.11-29.52,38.08-58,1-81.56a88.55,88.55,0,0,1-5.85,26.48,4,4,0,0,1-5,2.34l-2.59-.83a4.85,4.85,0,0,1-2.92-6.42l0-.06c7.39-17.34,1.92-29.05-10.89-34.36-4.78-2-12.35-3.09-17-4.46,4,9.92,5.67,20.81,1.23,31.11a4.53,4.53,0,0,1-7,1.69,5.46,5.46,0,0,1-1.91-6.06c4.56-13.08-4.28-28.69-18.34-30.7-2.89-.42-5.72-.76-8.47-1,2.1,5.41,1.25,15.34.59,20.62a4.69,4.69,0,0,1-3.72,4.13c-3.19.6-6.2-2.29-6-5.73l.08-1.2c.72-10.76-12.17-18.72-21.1-13C119.11,660.41,108.18,663.54,97.42,661Zm35.06,2.62c3.31-1.7,8.3,1.39,11.15,6.92s2.49,11.38-.81,13.09-8.29-1.39-11.15-6.91S129.18,665.32,132.48,663.61Z"/></g><path class="cls-12" d="M660,716.15s32.72,89.47,87.57,58.4c39.41-22.32,26.86-160.88,26.86-160.88s32.3-12.77,42.48-58c11.4-50.63-34.45-42.91-34.45-42.91L762.76,541.7s-14.57-11-25.17,3.91.48,50.58,8.8,61.35l-29.67,86S680.66,714.36,660,716.15Z"/><path class="cls-13" d="M587.42,468.53s43.43,22.25,55.55,32.63c17,14.59,46.64,101.89,67.29,174.27,1.56,5.48,29.84-50.22,29.84-50.22s45.2,28.36,42.44,35.2c-2.92,7.23-4.48,72.61-21.26,113.38C751.7,797.05,689,845,640.2,746.32l-22-69.89s-21.34,108.1-35,226.72c-65.18.19-211.61.19-292.39-5.5C311,765,344.38,564.12,367.59,517.52,391,470.46,463,436.68,512.52,444.19,537.7,448,563.58,456.83,587.42,468.53Z"/><path class="cls-1" d="M1152.81,708.06c-.3,1.75-.61,3.46-.92,5.17-22,124-86.43,178.46-86.43,178.46H98.9S39.77,782.85,65.77,687.85c.39-1.45.78-2.9,1.22-4.3C84.1,627,132.38,576.06,242.67,556.9c23.72-4.12,45.56-8.06,65.69-11.83,2.84-.57,5.6-1.1,8.36-1.62,70-13.42,118.78-25.39,155.89-39.06h0c2.72-1,5.39-2.06,8-3.07C556.07,471.6,581.85,433,649.42,354.5q7.88-9.13,16.81-17.93c1.31-1.31,2.62-2.58,4-3.81,36.46-34.72,84.86-64.66,137-82,1.4-.48,2.8-1,4.2-1.4,66.83-21.22,139.44-21.52,200.84,15.61,2.32,1.4,4.64,2.85,7,4.38,48.62,32.13,89.59,88.9,114,178.82C1162.53,555.72,1163.75,641.6,1152.81,708.06Z"/><polygon class="cls-14" points="512.51 444.19 536.15 828.93 584.87 493.69 557.91 508.8 512.51 444.19"/><polyline class="cls-15" points="501.98 445.8 490.39 536.26 512.51 557.72 495.37 584.2 524.26 763.79"/><path class="cls-12" d="M703.23,379.25c-15.88,57.05-61.94,98.83-99.55,83.58-26.73-10.83-57.92-66-42-123s60.46-94.47,99.56-83.59c30.46,8.49,50,43.79,49,85.95C710,354.14,706.74,366.64,703.23,379.25Z"/><polygon class="cls-12" points="571.62 350.67 512.27 445.8 557.91 508.8 583.5 497.2 592.66 473.66 619.97 410.06 571.62 350.67"/><path class="cls-15" d="M618.2,676.43s23.19-104.9,14.54-163.65"/><path class="cls-16" d="M549.1,385.39s-.84-51,17-96.73,63.19-58.38,98.5-47.85S730.84,299,719.42,325s-10.69,7.6-10.69,7.6-63.08-45.37-72.57-39,.07,46.5-24.41,42.64C597,333.9,570,364.54,549.1,385.39Z"/><ellipse class="cls-12" cx="591.73" cy="342.18" rx="27.01" ry="18.51" transform="translate(142.6 857.46) rotate(-78.96)"/><path class="cls-17" d="M750.35,564.6l39-109.77a6.52,6.52,0,0,1,5.3-4.28l33.74-4.44a6.52,6.52,0,0,1,6.9,8.89L792,563.15a6.51,6.51,0,0,1-4.74,4l-29.41,6.06A6.52,6.52,0,0,1,750.35,564.6Z"/><path class="cls-18" d="M753.77,567.74l39-109.77a6.53,6.53,0,0,1,5.3-4.29l33.74-4.43a6.52,6.52,0,0,1,6.9,8.89l-43.3,108.14a6.54,6.54,0,0,1-4.74,4l-29.41,6.06A6.52,6.52,0,0,1,753.77,567.74Z"/><path class="cls-2" d="M800.35,379.2l15-33.86c1.62-3.65,1-6.68-1.35-6.75l-48.09-1.29c-2.36-.06-5.62,2.87-7.24,6.52l-13.14,29.6,0-.07-9.19,14.74L752,384.61h0l41.1,1.1C795.47,385.78,798.73,382.85,800.35,379.2Z"/><path class="cls-19" d="M760.36,416l53.89,1.74c2.64.09,6.12-2.72,7.72-6.23l14.82-32.64c1.6-3.52.74-6.47-1.9-6.55L781,370.53c-2.64-.09-6.12,2.72-7.72,6.23L758.46,409.4C756.86,412.92,757.72,415.87,760.36,416Z"/><line class="cls-20" x1="819.44" y1="383.74" x2="782.56" y2="383.58"/><line class="cls-20" x1="813.61" y1="397.39" x2="793.61" y2="397.3"/><polygon class="cls-19" points="822.98 409.23 818.63 424.73 808.35 416.58 822.98 409.23"/><path class="cls-19" d="M909.7,504.64l37.61-2.2c3.69-.21,8.1-3.26,9.84-6.79l17.72-36c1.74-3.53.16-6.22-3.54-6l-37.61,2.21c-3.7.21-8.11,3.25-9.85,6.79l-17.71,36C904.42,502.17,906,504.86,909.7,504.64Z"/><path class="cls-4" d="M929.21,481c1.63,3.52,7.41,3.51,12.93,0s8.68-9.24,7.06-12.76-7.41-3.52-12.93,0S927.59,477.52,929.21,481ZM937,470c4-2.59,8.28-2.6,9.47,0s-1.13,6.78-5.17,9.36-8.29,2.6-9.48,0S933,472.63,937,470Z"/><path class="cls-4" d="M946.08,490.8h0c.86-.56,1.35-1.47,1.08-2l-3-6.09c-.27-.55-1.19-.53-2,0h0c-.86.56-1.35,1.47-1.08,2l3,6.1C944.29,491.38,945.22,491.36,946.08,490.8Z"/><path class="cls-19" d="M939.21,444.71l37.61-2.2c3.7-.22,8.11-3.26,9.85-6.79l17.71-36c1.75-3.53.16-6.22-3.54-6l-37.61,2.2c-3.69.22-8.1,3.26-9.84,6.8l-17.72,36C933.93,442.24,935.51,444.93,939.21,444.71Z"/><path class="cls-4" d="M966.24,417.78,978,406.91l.68,11.14a6.2,6.2,0,0,1-.34,4.19v.09h0c-.09.23-.19.45-.3.69-2.28,4.62-8,8.59-12.86,8.87s-6.9-3.23-4.63-7.85A16.87,16.87,0,0,1,966.24,417.78Z"/><ellipse class="cls-19" cx="880.86" cy="450.62" rx="30.1" ry="17.54" transform="translate(-95.49 610.99) rotate(-36.42)"/><path class="cls-4" d="M875.55,463.57h0a7.61,7.61,0,0,0,5.74-3.91L890,442.21c1-2,.11-3.63-2-3.53h0a7.64,7.64,0,0,0-5.74,3.91L873.52,460C872.5,462.09,873.41,463.67,875.55,463.57Z"/><path class="cls-4" d="M894.78,450.49h0c1-2,.1-3.63-2-3.53l-18.27.9a7.62,7.62,0,0,0-5.74,3.9h0c-1,2.05-.1,3.63,2,3.53L889,454.4A7.64,7.64,0,0,0,894.78,450.49Z"/><polyline class="cls-15" points="597.97 478.2 597.97 557.72 581.04 567.59 591.73 596.86 549.09 781.27"/><path class="cls-21" d="M589.7,333.23l.55-.31c.6-.34-.87.22,0,0a5.84,5.84,0,0,0,.6-.15c.31-.13-1,0-.19,0,.24,0,.47,0,.71,0s.84.24-.17-.05c.4.11.83.15,1.23.28a3.57,3.57,0,0,0,.6.21l-.4-.17.3.14a12.63,12.63,0,0,1,1.12.66c.12.08.24.16.35.25l-.41-.32c.09.16.36.3.5.43a13.17,13.17,0,0,1,1,1c.24.28-.53-.75-.07-.06.14.21.27.42.4.64s.25.45.37.69.12.23.17.34c.17.38.14.32-.07-.18a4.84,4.84,0,0,1,.51,1.47c.15.5.28,1,.39,1.52s.19,1,.28,1.55c.13.84-.08-.72,0,.05l.09.8c.11,1.14.18,2.28.25,3.42a3.74,3.74,0,1,0,7.47,0c-.32-5.57-.9-11.49-4.78-15.85-3.53-4-9.78-5.75-14.5-2.88a3.74,3.74,0,1,0,3.77,6.45Z"/><path class="cls-22" d="M650,339.39c.41-.2,0,0-.17.05a2.07,2.07,0,0,0,.45-.17,10.4,10.4,0,0,1,1.09-.31l.5-.11c.1,0,.68-.1.19,0s.11,0,.2,0l.54,0c.4,0,.81,0,1.22,0a3,3,0,0,1,1.09.08c-.15-.11-.57-.1-.09,0l.54.1c.4.09.8.19,1.2.32l.5.17c.08,0,.64.22.21.06s.1.05.19.09l.46.23c.3.16.6.33.89.51s.34.24.52.35c.42.28-.08,0-.11-.09,0,.16.59.5.72.63s.43.44.63.67c.42.47-.27-.42-.06-.07l.24.36a6.71,6.71,0,0,1,.44.84,3.46,3.46,0,0,0,4.72,1.24,3.56,3.56,0,0,0,1.24-4.72c-1.58-3.47-5.24-5.82-8.76-6.92a16.52,16.52,0,0,0-12.07.83,3.46,3.46,0,0,0-1.24,4.72,3.54,3.54,0,0,0,4.72,1.23Z"/><path class="cls-22" d="M697.2,367.46a6.16,6.16,0,0,1,1.24-.72l-.76.32a8,8,0,0,1,1.93-.53l-.85.11a8.87,8.87,0,0,1,2.06,0l-.85-.12a7.44,7.44,0,0,1,1.81.48l-.76-.32a6.2,6.2,0,0,1,1.27.74l-.64-.5a5.44,5.44,0,0,1,.88.85l-.5-.64a4.26,4.26,0,0,1,.52.87l-.32-.76a3.31,3.31,0,0,1,.2.7,3.17,3.17,0,0,0,1.47,1.9,3.3,3.3,0,0,0,2.46.33,3.22,3.22,0,0,0,1.9-1.47,3.56,3.56,0,0,0,.33-2.46c-.53-2.92-3.41-5.08-6.15-5.74a10.48,10.48,0,0,0-8.46,1.45,3.54,3.54,0,0,0-1.47,1.91,3.22,3.22,0,0,0,2.23,3.93,3.06,3.06,0,0,0,2.46-.32Z"/><path class="cls-22" d="M688.36,391.25l-1.92,3.92a2.42,2.42,0,0,0-.38,1.19,2.57,2.57,0,0,0,.06,1.29,2.41,2.41,0,0,0,.58,1.09,2.32,2.32,0,0,0,.9.83,3.26,3.26,0,0,0,2.48.32,3.16,3.16,0,0,0,1.92-1.47l1.92-3.92a2.36,2.36,0,0,0,.38-1.2,2.33,2.33,0,0,0-.06-1.28,2.37,2.37,0,0,0-.57-1.1,2.56,2.56,0,0,0-.9-.83,3.28,3.28,0,0,0-2.49-.32,3.21,3.21,0,0,0-1.92,1.48Z"/><path class="cls-22" d="M647.54,373.74l-2.63,4.47a4.19,4.19,0,0,0-.37,2.88,2.72,2.72,0,0,0,.66,1.27,2.85,2.85,0,0,0,1,1,3.77,3.77,0,0,0,2.88.38,3.88,3.88,0,0,0,2.23-1.72l2.63-4.47a4.19,4.19,0,0,0,.37-2.88,2.72,2.72,0,0,0-.66-1.27,2.85,2.85,0,0,0-1.05-1,3.77,3.77,0,0,0-2.88-.38,3.88,3.88,0,0,0-2.23,1.72Z"/><path class="cls-21" d="M676.85,377.74a50.28,50.28,0,0,0-10.62,29.6.94.94,0,0,0,1.87,0,48.15,48.15,0,0,1,10.07-28.28c.73-.93-.58-2.27-1.32-1.32Z"/><path class="cls-21" d="M664.36,421.15a11.13,11.13,0,0,1-6.15-.51,13.94,13.94,0,0,1-5.46-3.86,1.65,1.65,0,1,0-2.34,2.34,15.67,15.67,0,0,0,14.83,5.22,1.67,1.67,0,0,0,1.16-2,1.69,1.69,0,0,0-2-1.16Z"/><path class="cls-19" d="M663.28,434.26a62.26,62.26,0,0,1-39.64-22c.5,6.65,1,13.44,3.75,19.52s8.08,11.42,14.69,12.21c7.06.84,13.58-3.47,19.38-7.57"/><path d="M611.44,453.85c2.49,9,12.86,14.76,21.79,11.89a3.73,3.73,0,1,0-2-7.2c-.43.13-.86.26-1.31.35l-.55.1c-.37.08,1-.08.1,0a22.59,22.59,0,0,1-2.47,0c-.48,0,.87.15.21,0l-.67-.13a12.05,12.05,0,0,1-1.31-.35,7.13,7.13,0,0,0-1.06-.39c.54.23.63.27.27.11l-.21-.1-.61-.31c-.36-.2-.72-.41-1.07-.64l-.47-.32-.27-.2c-.23-.17-.13-.09.31.24-.11-.26-.73-.62-.94-.82s-.58-.59-.85-.9-.27-.61,0,.05a3.36,3.36,0,0,0-.39-.54c-.21-.31-.41-.63-.59-1s-.21-.4-.31-.6a2.92,2.92,0,0,1-.14-.31c-.12-.26-.07-.13.15.38a5.88,5.88,0,0,0-.42-1.29,3.74,3.74,0,0,0-7.21,2Z"/><path class="cls-21" d="M598.45,460.18s-3.84-2-10.63-12.13c-12.41-18.42-19.58-47.38-16.24-69.34l3.35-19.34-25.83,26-9.17,16.07S570,521.17,598.45,460.18Z"/><path class="cls-12" d="M816.89,555.69s7.37-59.7-12.53-51.88c-20.39,8-19.51,42.3-19.51,42.3a19.73,19.73,0,0,0-2.3,9.66c.16,6.07,2.06,14.38,11.61,12.62,14.74-2.71,10.37,7.12,10.37,7.12"/><path class="cls-12" d="M737.59,545.61s11-27.14,23.52-21.94c10.85,4.51,0,12.88,0,12.88L751,562.11"/><path class="cls-12" d="M634,553s34.57-19.28,47.35-44.06,22.72-21.61,23.72-39.14a23,23,0,0,0-4.17-14.57c-6.66-9.51-20.44-14.35-35.57-7.16-21.75,10.35-32.88,34.75-32.88,34.75s5.67-16-3.32-20.84-7.49,10.55-11.75,24.8-6.75,45.42-6.75,45.42-35.92,42.11-74.47,54.42l52.49,44.87S579.87,645,634,553Z"/><path class="cls-23" d="M466.48,488,491.39,613.7l107.33-71.34,27.4,41.84s-94.89,157.42-169.6,178.23S377.83,559.1,377.83,559.1"/><path class="cls-21" d="M621,444.83a14.47,14.47,0,0,0,17.8,10.73.93.93,0,0,0-.49-1.8,12.77,12.77,0,0,1-15.51-9.42c-.28-1.17-2.08-.68-1.8.49Z"/><ellipse class="cls-24" cx="644.22" cy="375.47" rx="20.58" ry="20.92"/><ellipse class="cls-25" cx="691.48" cy="395.52" rx="20.92" ry="18.78" transform="translate(100.52 929.7) rotate(-71.88)"/><path class="cls-24" d="M673.63,389.68s1.24-4.64-10.66-5.57"/><line class="cls-24" x1="627.44" y1="363.38" x2="610.08" y2="332.18"/><line class="cls-24" x1="705.51" y1="407.34" x2="697.38" y2="396.39"/><polygon class="cls-14" points="583.5 552.48 610.62 604.8 626.12 584.2 597.97 540.65 583.5 552.48"/><polygon class="cls-14" points="740.1 625.21 786.96 641.66 782.54 667.09 731.88 641 740.1 625.21"/><ellipse class="cls-26" cx="594.17" cy="609.28" rx="4.28" ry="4.49"/><ellipse class="cls-26" cx="769.8" cy="676.43" rx="4.28" ry="4.49"/><ellipse class="cls-26" cx="769.3" cy="694.36" rx="4.28" ry="4.49"/><ellipse class="cls-26" cx="768.8" cy="710.92" rx="4.28" ry="4.49"/><ellipse class="cls-26" cx="582.07" cy="622.17" rx="4.28" ry="4.49"/><ellipse class="cls-26" cx="569.86" cy="633.49" rx="4.28" ry="4.49"/><rect class="cls-14" x="86.77" y="892.38" width="1011.9" height="21.92"/><circle class="cls-2" cx="327.57" cy="434.1" r="12.63"/></g></svg>