<svg xmlns="http://www.w3.org/2000/svg" viewBox="0 0 1200 1200"><defs><style>.cls-1{fill:#243550;}.cls-2{fill:#858f9e;}.cls-11,.cls-12,.cls-15,.cls-2,.cls-8{fill-rule:evenodd;}.cls-3{fill:#71c1ac;}.cls-15,.cls-4{fill:#f7b503;}.cls-5,.cls-8{fill:#12100b;}.cls-6{fill:#875d34;}.cls-7{fill:#705126;}.cls-11,.cls-9{fill:#fff;}.cls-10{fill:#f5f5f6;}.cls-12{fill:#7c7b7b;}.cls-13,.cls-16{fill:none;stroke-linecap:round;}.cls-13{stroke:#283273;stroke-width:2.7px;}.cls-13,.cls-22{stroke-miterlimit:10;}.cls-14{fill:#60a298;}.cls-16{stroke:#fff;stroke-linejoin:round;stroke-width:3.13px;}.cls-17{fill:#68b1a2;}.cls-18{fill:#556277;}.cls-19{fill:#3e646f;}.cls-20{fill:#dfdede;}.cls-21{fill:#999593;}.cls-22{fill:#d2e1eb;stroke:#fffdf3;stroke-width:1.93px;}.cls-23{fill:#467379;}</style></defs><g id="Calque_1" data-name="Calque 1"><path class="cls-1" d="M1092.21,963.1c131.2-104-188.15-212.9-178.25-494.33S569.86,104.08,454.45,349.16,277.75,468,166.35,679.66s79.2,332.73,79.2,332.73c.71.53,1.43,1,2.14,1.56h758.66C1041.88,997.16,1071.23,979.73,1092.21,963.1Z"/><path class="cls-2" d="M692.91,832.68s55.26-321.13,251.36-256.39c125.36,41.39,149.06,475.64-102.17,467.59C343.81,1027.92,692.91,832.68,692.91,832.68Z"/><path class="cls-3" d="M842.31,743.22l-196.84-8.93c0-28.71,4.51-78.17,74.71-94.56l81.54-3,54,12.44C881.93,649.23,868.56,743.23,842.31,743.22Z"/><path class="cls-3" d="M845.65,659.51Q770.22,681.67,697,652.76s-59.45,50.92-53.3,129.06c1.88,23.8,16.68,39.46,27.6,50.13,5.9,43.56,25.09,127.24,14.77,157.38-19.55,75.85,116.2,60.11,213.93,27.57,0,0-13.27-218.9-8.51-238.26C909.81,704.31,845.65,659.51,845.65,659.51Z"/><path class="cls-3" d="M615.82,933.07h0c-19.12-4.31-31.79-22.89-28.16-41.29l40-189.89c4.68-24.78,25.57-50.84,82.39-56.66,0,0-6.52,27.66-10.16,46.06L657.19,907.46C653.56,925.86,634.94,937.39,615.82,933.07Z"/><path class="cls-3" d="M419.83,955.36l176.51-82.23,60.24,37.21s-7.46,52-200.87,79Z"/><circle class="cls-4" cx="966.92" cy="513" r="12.63"/><circle class="cls-4" cx="314.18" cy="457" r="12.63"/><path class="cls-5" d="M774,478.07s33.78,36.81,20.52,64.39S776.24,597.62,758.21,587s-25-130.18-25-130.18Z"/><path class="cls-6" d="M711.22,655.11a36.18,36.18,0,0,1-3.31-8.67c25.33-13.23,15.64-45.33.78-94-3.49-15.26,5.09-30.36,19.07-33.55l4.54-1c14-3.2,34.69,10.72,38.17,26,11.34,45.51,12.93,85.79,40.8,95.14-4.51,22.48-34.47,32.93-52.38,37.22C740.08,680.69,720.27,672.21,711.22,655.11Z"/><path class="cls-7" d="M721.8,597.71s6.24-1.22,8.1-2.1S756.77,581,756.77,581s-11.88,34.38-32.9,39.13C723.87,620.1,723,602.6,721.8,597.71Z"/><path class="cls-6" d="M707.5,608.11c-14.48-8-33.38-29-35.92-52.72L665,514.85c-3.27-30.46,16-57.74,42.82-60.61l2.68-.29c26.82-2.88,51.43,19.69,54.7,50.16l5.3,49.4c2.56,23.91-27.22,41.36-39.5,52.09C727.6,608.54,711.63,610.41,707.5,608.11Z"/><path class="cls-8" d="M664.6,488.14c.62-8.93,5.87-29.52,13.35-34.44,21.46-14.12,65-26.49,96-5.69,41.72,28,22.74,88.15,22.74,88.15s-50.68-11.5-49.42-39.28c1.81-40.06-49.21-6.59-71.1-16.61-6.12-2.8-9.17,11-9.17,11Z"/><path class="cls-6" d="M784.29,539.45c-1.59,9.14-7.51,15.07-13.23,13.24S762,542,763.58,532.83s7.51-15.07,13.22-13.24S785.87,530.31,784.29,539.45Z"/><path class="cls-5" d="M671.66,515.76a33.45,33.45,0,0,1,9.27-.73,2.33,2.33,0,0,0,2.4-2.39v0a2.24,2.24,0,0,0-2-2.25,27,27,0,0,0-10.73.86,2.38,2.38,0,0,0-1.67,2.56v0A2.21,2.21,0,0,0,671.66,515.76Z"/><path class="cls-5" d="M715.26,515.22a58.44,58.44,0,0,1,12.34-.89c1.73,0,3.22-1.09,3.23-2.44v0a2.48,2.48,0,0,0-2.55-2.22A48.22,48.22,0,0,0,714,510.7a2.59,2.59,0,0,0-2.27,2.6h0C711.9,514.66,713.53,515.53,715.26,515.22Z"/><path class="cls-5" d="M724.43,528.79c.44,3.25-.61,6.1-2.35,6.38s-3.52-2.12-4-5.36.61-6.1,2.35-6.38S724,525.55,724.43,528.79Z"/><path class="cls-5" d="M681.11,530.25c.44,3.24-.61,6.09-2.35,6.37s-3.53-2.12-4-5.36.6-6.09,2.35-6.37S680.66,527,681.11,530.25Z"/><path class="cls-7" d="M714.11,586.75a21.61,21.61,0,0,1-2.53-.13,1.75,1.75,0,0,1,.42-3.48c.12,0,11.61,1.27,15-6.1a1.76,1.76,0,0,1,3.2,1.45C726.84,585.78,718.38,586.75,714.11,586.75Z"/><path class="cls-6" d="M770.63,537.9h-.17a1.75,1.75,0,0,1-1.58-1.91c.06-.66.69-6.56,4-8.8a5.14,5.14,0,0,1,4.45-.63,1.75,1.75,0,0,1,1.19,2.17,1.77,1.77,0,0,1-2.17,1.2,1.6,1.6,0,0,0-1.5.16c-1.52,1-2.32,4.64-2.46,6.22A1.76,1.76,0,0,1,770.63,537.9Z"/><path class="cls-6" d="M908.89,941.93h0a38.64,38.64,0,0,1-41.72-35L852,732.44a38.65,38.65,0,0,1,35.06-41.72h0a38.65,38.65,0,0,1,41.72,35l15.14,174.44A38.65,38.65,0,0,1,908.89,941.93Z"/><path class="cls-7" d="M701.1,569.45c-2.61,0-5.76-.43-7.84-2.57-1.79-1.84-2.51-4.57-2.21-8.33.61-7.69,2-18.85,2-19a1.78,1.78,0,0,1,2-1.52,1.76,1.76,0,0,1,1.52,2c0,.11-1.41,11.19-2,18.8-.22,2.66.2,4.55,1.23,5.61s3.25,1.64,6.61,1.47a1.8,1.8,0,0,1,1.84,1.66,1.75,1.75,0,0,1-1.66,1.84C702.11,569.43,701.61,569.45,701.1,569.45Z"/><path class="cls-9" d="M674.4,555.73a10.54,10.54,0,0,1-5.85-2.3c-3.74-3.14-5.72-9.75-6.83-22.83a1.16,1.16,0,0,1,.3-.89,1.18,1.18,0,0,1,.86-.38l29.28-.11a1.16,1.16,0,0,1,1.18,1.15c0,1,.18,24.11-12.12,25.22A36.71,36.71,0,0,1,674.4,555.73Zm-10.24-24.06c1.06,11.4,2.83,17.4,5.89,20,2.36,2,5.68,2.09,11,1.62,8.78-.8,9.85-17.16,10-21.7Z"/><path class="cls-9" d="M718.22,555.87c-9.4-1-12.76-6.39-15.46-25.5a1.16,1.16,0,0,1,1.16-1.33l36.08.12a1.15,1.15,0,0,1,1.17,1.11c0,.58.62,14.46-5.87,21.59a12.27,12.27,0,0,1-8.8,4.1A57,57,0,0,1,718.22,555.87Zm-13-24.49c3.27,22.12,7.24,22.88,21.13,22.24a10,10,0,0,0,7.17-3.33c4.86-5.34,5.28-15.45,5.28-18.8Z"/><path class="cls-9" d="M692,531.55a1.17,1.17,0,0,1,.11-2.33L703.9,529a1.17,1.17,0,0,1,0,2.33l-11.74.19Z"/><path class="cls-9" d="M739.87,531.49a1.19,1.19,0,0,1-1-1,1.17,1.17,0,0,1,1-1.34L767,524.81a1.17,1.17,0,1,1,.37,2.31l-27.15,4.36A1.16,1.16,0,0,1,739.87,531.49Z"/><path class="cls-10" d="M522.6,999H750.34a7.74,7.74,0,0,1,7.74,7.74v7.21a0,0,0,0,1,0,0H522.6a0,0,0,0,1,0,0V999A0,0,0,0,1,522.6,999Z"/><path class="cls-11" d="M582.56,1014H312.32L222.43,836.77l5.77-7.89a12.49,12.49,0,0,1,10.08-5.11H490.54a9.82,9.82,0,0,1,8.86,5.91Z"/><path class="cls-12" d="M570.81,1014H300.57L222.78,840.59a5.93,5.93,0,0,1,5.42-8.36H485.43a5.92,5.92,0,0,1,5.41,3.5Z"/><ellipse class="cls-9" cx="379.65" cy="928.16" rx="19.35" ry="26.95" transform="translate(-623.04 943.37) rotate(-68.62)"/><circle class="cls-13" cx="581.61" cy="1007.28" r="3.7"/><line class="cls-13" x1="697.4" y1="1006.47" x2="717.33" y2="1006.47"/><line class="cls-13" x1="727.3" y1="1006.47" x2="747.24" y2="1006.47"/><path class="cls-6" d="M629.89,998.1c-1.95,0,6.19-36.57,63.62-36.57,52.43,0,47.77,36.57,47.77,36.57Z"/><path class="cls-6" d="M636.08,997.81a1.08,1.08,0,0,1-.75-.3,1.11,1.11,0,0,1-.07-1.56l9.3-10.07c7.62-10.18,24.26-12.28,25-12.37a1.13,1.13,0,0,1,1.23,1,1.1,1.1,0,0,1-1,1.23c-.16,0-16.41,2.08-23.53,11.58l-9.37,10.16A1.1,1.1,0,0,1,636.08,997.81Z"/><path class="cls-6" d="M648.4,997.81a1.12,1.12,0,0,1-.9-.46,1.1,1.1,0,0,1,.25-1.54L661,986.22a44.88,44.88,0,0,1,23.51-8.45,1.14,1.14,0,0,1,1.17,1,1.1,1.1,0,0,1-1,1.17,42.67,42.67,0,0,0-22.35,8l-13.25,9.59A1.14,1.14,0,0,1,648.4,997.81Z"/><path class="cls-6" d="M717.8,966.44l164.81-84.32,56.86,39.62S930,971.2,741.28,998.1Z"/><path class="cls-3" d="M733.19,955c4.13-9.62,104.07-57.81,104.07-57.81l-25-260.42,63.34,7.89c31.08,7,54.39,33.45,58,65.86L954.24,896.8s3.09,34.81-39.61,56.76c0,0-100.75,41.71-147.54,43.14C769.4,976.35,761.66,964.43,733.19,955Z"/><path class="cls-14" d="M738.86,957.42a1.75,1.75,0,0,1-.78-3.32c.35-.17,35.38-17.5,69.8-36.18,65.35-35.48,68.09-43.09,68-44.25C873.51,861.1,864,747.8,863.57,743a1.76,1.76,0,0,1,3.5-.29c.1,1.18,9.92,117.94,12.23,130.34.51,2.74,1.71,9.15-69.36,47.76-34.6,18.8-70,36.28-70.31,36.45A1.64,1.64,0,0,1,738.86,957.42Z"/><path class="cls-13" d="M225.75,832.23s3.67-8.46,12.53-8.46H490.54"/><path class="cls-15" d="M381.4,753.72A16.85,16.85,0,0,0,349,747.15a16.85,16.85,0,1,0-30.28,14.69h0s3.94,8.72,30.28,30.34c26.34-21.62,30.28-30.34,30.28-30.34h0A16.84,16.84,0,0,0,381.4,753.72Z"/><polyline class="cls-16" points="327.55 763.22 340.07 763.22 345.58 750.52 349.65 778.54 354.2 764.53 370.72 764.53"/><path class="cls-17" d="M809.81,637a68.4,68.4,0,0,1-18.09,23.74c-7.92,6.55-17.46,10.43-27.45,12.57-10.76,2.3-22.26,2.42-32.79-1.09a23.52,23.52,0,0,1-4.71-2c-.5-.29-1-.61-1.45-.94-.29-.2-.57-.42-.86-.63-.58-.43.32.26,0,0l-.63-.51a43.44,43.44,0,0,1-3.64-3.41q-.9-.94-1.74-2a22.54,22.54,0,0,1-1.53-2c-.6-.85-1.16-1.72-1.68-2.62-.26-.45-.5-.9-.73-1.36-.11-.21-.21-.42-.31-.63s-.43-1-.22-.45a21.51,21.51,0,0,1-1-2.84c-.11-.43-.2-.87-.28-1.31,0-.08-.11-1-.05-.28,0-.26,0-.52-.07-.79,0-.48,0-1,0-1.44,0-.22,0-.44,0-.66,0-.82-.13.53,0-.27.11-.53.21-1,.37-1.56.06-.21.47-1.26.28-.84a13.45,13.45,0,0,1,4.21-5.23,2.93,2.93,0,0,0,0-4.1,3,3,0,0,0-4.1,0,17.6,17.6,0,0,0-6.59,12c-.37,4.1,1,8.24,2.89,11.82a40.1,40.1,0,0,0,7.37,9.62,31.85,31.85,0,0,0,7.7,5.91c5.08,2.57,10.9,3.81,16.52,4.5a70.47,70.47,0,0,0,17.83-.22c11.5-1.53,23-5.22,32.5-12A72.08,72.08,0,0,0,814.81,640a3,3,0,0,0-1-4,2.92,2.92,0,0,0-4,1Z"/><path class="cls-17" d="M743.41,677.88c-.2,5.46,0,11,.08,16.44q.18,17.11.43,34.24.29,21.06.59,42.12.27,20.24.53,40.47c.11,9.72.23,19.43.27,29.15,0,.79,0,1.57,0,2.36,0,3.72,5.79,3.73,5.79,0,0-9-.12-18-.23-27.08q-.23-19.86-.51-39.73-.29-21.21-.59-42.44-.24-17.8-.46-35.62c-.07-6.38-.22-12.78-.14-19.16,0-.25,0-.5,0-.75.14-3.73-5.66-3.73-5.79,0Z"/><path class="cls-17" d="M797.53,796.79a172.06,172.06,0,0,0,45.34-4.52c3.63-.86,2.09-6.45-1.54-5.59a165.94,165.94,0,0,1-43.8,4.32c-3.73-.13-3.73,5.67,0,5.79Z"/><polygon class="cls-18" points="1006.35 1013.95 247.69 1013.95 32.59 1013.95 32.59 1044.91 297.08 1044.91 931.3 1044.91 1132.59 1044.91 1132.59 1013.95 1006.35 1013.95"/><rect class="cls-19" x="885.84" y="932.28" width="31.03" height="84.85"/><rect class="cls-20" x="881.52" y="922.15" width="39.48" height="13.12"/><rect class="cls-3" x="930.66" y="962.39" width="49.3" height="54.75"/><rect class="cls-20" x="926.17" y="958.37" width="56.38" height="7.08"/><rect class="cls-4" x="850.5" y="987.76" width="73.43" height="29.38"/><rect class="cls-20" x="915.14" y="985.55" width="11.03" height="31.58"/><rect class="cls-9" x="932.61" y="980.44" width="40.27" height="20.91"/><rect class="cls-9" x="886.79" y="951.56" width="25.69" height="13.34"/><polygon class="cls-9" points="975.02 967.76 973.9 1015.77 978.19 1015.77 975.02 967.76"/><polygon class="cls-9" points="912.48 984.01 915.14 984.01 915.14 936.57 912.48 984.01"/><rect class="cls-21" x="881.52" y="932.28" width="39.48" height="2.98"/><path class="cls-22" d="M1081.67,1014h-54.78a5.27,5.27,0,0,1-5.26-5.26V965.08a62.53,62.53,0,0,1,12.6-37.63l5.86-7.76V896.42h31v23.75l7.83,9.65a48.93,48.93,0,0,1,10.93,31.69l-.77,45.14A7.43,7.43,0,0,1,1081.67,1014Z"/><path class="cls-23" d="M1027.35,948.76a57.08,57.08,0,0,0-2.79,17.59v39.88a4.8,4.8,0,0,0,4.8,4.8h50.09a6.78,6.78,0,0,0,6.79-6.67l.71-41.28a44.63,44.63,0,0,0-2.13-14.32Z"/><rect class="cls-20" x="1035.77" y="886.28" width="39.48" height="13.12"/><rect class="cls-9" x="1025" y="965.45" width="48.96" height="23.24"/><rect class="cls-21" x="1035.77" y="896.42" width="39.48" height="2.98"/><rect class="cls-21" x="926.44" y="963.05" width="56.11" height="2.98"/><rect class="cls-9" x="881.52" y="992.52" width="12.95" height="23.25"/><polygon class="cls-9" points="854.46 991.76 854.46 989.76 913.81 989.76 854.46 991.76"/><rect class="cls-21" x="915.14" y="985.55" width="3.24" height="31.58"/><path class="cls-9" d="M1066.21,902.39v14.49a.72.72,0,0,0,1.44,0V902.39a.72.72,0,0,0-1.44,0Z"/><path class="cls-9" d="M1069.29,927.46a53.57,53.57,0,0,1,13.52,28.09c.91,5.58.8,11.21.72,16.85-.09,6-.27,12-.38,18.06s-.17,12.16.17,18.23c0,.93,1.5.93,1.45,0-.66-11.69,0-23.43.19-35.12a111,111,0,0,0-.54-17,58,58,0,0,0-4.32-15.33,52.61,52.61,0,0,0-9.78-14.8c-.64-.68-1.66.35-1,1Z"/><path class="cls-5" d="M702.75,605.12s10.84,9.68,25-4.59C727.72,600.53,711.94,638.34,702.75,605.12Z"/></g></svg>