<svg id="Calque_2" data-name="Calque 2" xmlns="http://www.w3.org/2000/svg" viewBox="0 0 1200 1200"><defs><style>.cls-1{fill:#243550;}.cls-1,.cls-10{fill-rule:evenodd;}.cls-10,.cls-2{fill:#f7b503;}.cls-3{fill:#875d34;}.cls-4{fill:#5c331f;}.cls-5{fill:#1a1a1a;}.cls-6{fill:#c0e3da;}.cls-7{fill:#c79057;}.cls-8{fill:#fff;}.cls-9{fill:#71c1ac;}.cls-11{fill:#12100b;}.cls-12{fill:#cbcbcb;}.cls-13{fill:#704526;}.cls-14{fill:#1d1d1b;}.cls-15{opacity:0.26;}.cls-16{fill:#e3f3fa;}.cls-17{fill:#775247;}.cls-18{fill:#fff4a2;}.cls-19{fill:#7e7e7e;}.cls-20{fill:#2d55a3;}.cls-21{fill:#56b3e6;}.cls-22{fill:none;stroke:#71c1ac;stroke-linecap:round;stroke-linejoin:round;stroke-width:7.39px;}</style></defs><path class="cls-1" d="M1171.1,258.59S1142-2.61,863.72,5.6,686.09,142.46,370.81,137.78s-409.31,408-110,541.63,249.87,523.2,425.69,439.2S1238.5,625.14,1171.1,258.59Z"/><path class="cls-2" d="M842.23,181.21l-1,11.95-14.49-11.95H719.5a7.42,7.42,0,0,1-7.4-7.39V128.71a7.42,7.42,0,0,1,7.4-7.39H842.23a7.41,7.41,0,0,1,7.39,7.39v45.11A7.41,7.41,0,0,1,842.23,181.21Z"/><path class="cls-3" d="M985,471.13c-17.44-1-273.16,154-280.91,148.21S702.13,568,702.13,568s28.09-32.94,34.87-67.81-17.43-39.71-17.43-39.71-57.15,94.92-67.81,109.45-58.12,141.43-58.12,141.43L383.45,934.61c3,35.63,21.16,69.61,44.47,96.67,20.11,23.34,45.14,43.94,73.23,57.61l194.2-282.61c92,6.78,176.3-32.93,176.3-32.93l37.77-198.57s63.93-45.53,85.25-63S1002.41,472.1,985,471.13Z"/><path class="cls-4" d="M562.31,741.53l116.13,90.11a5.15,5.15,0,0,1,1.17,6.85l-20.06,31.14a5.14,5.14,0,0,1-7.5,1.26L531.8,776.46a5.14,5.14,0,0,1-.64-7.49l24.18-26.82A5.14,5.14,0,0,1,562.31,741.53Z"/><path class="cls-3" d="M902.21,599.45l54-31.07s16.21-4,17.56,15.54-81.73,64.84-81.73,64.84Z"/><path class="cls-3" d="M886.74,663.62l54-31.08s16.21-4,17.56,15.54-81.74,64.85-81.74,64.85Z"/><path class="cls-3" d="M856.52,720.6l54-31.07s16.21-4,17.56,15.54-81.73,64.85-81.73,64.85Z"/><path class="cls-5" d="M793.22,317.91l190.91,47.87a22.08,22.08,0,0,1,16.14,26.4l-90,388.62a22.09,22.09,0,0,1-26.64,16.5L690.41,751.17a22.06,22.06,0,0,1-16.36-26.55l92.32-390.38A22.06,22.06,0,0,1,793.22,317.91Z"/><path class="cls-6" d="M795.53,330.5,976.4,375.86a20.92,20.92,0,0,1,15.3,25l-85.25,368.2a20.91,20.91,0,0,1-25.23,15.62L698.12,741a20.93,20.93,0,0,1-15.5-25.16L770.09,346A20.92,20.92,0,0,1,795.53,330.5Z"/><path class="cls-7" d="M717.43,464s.32,36.38-18.49,30.51Z"/><polygon class="cls-8" points="774.07 304.74 749.75 216.25 719.71 206.79 763.93 304.74 774.07 304.74"/><polygon class="cls-8" points="787.58 300.69 793.66 227.73 815.95 224.35 796.36 300.69 787.58 300.69"/><polygon class="cls-8" points="751.1 311.5 699.09 255.77 690.3 277.72 746.89 317.57 751.1 311.5"/><circle class="cls-9" cx="858.34" cy="466.55" r="71.75"/><circle class="cls-6" cx="858.34" cy="466.55" r="55.16"/><circle class="cls-6" cx="815.95" cy="630.77" r="71.75"/><path class="cls-2" d="M601.15,833l-24.86-19.78a8.69,8.69,0,0,1-1.56-12.07l19.51-26a8.74,8.74,0,0,1,12.38-1.65l24.76,19.38a8.7,8.7,0,0,1,1.66,12l-19.4,26.46a8.69,8.69,0,0,1-5.89,3.49,9.36,9.36,0,0,1-1.18.08A8.66,8.66,0,0,1,601.15,833ZM601,778.51a1.83,1.83,0,0,0-1.25.73l-19.51,26a1.87,1.87,0,0,0,.33,2.59l24.86,19.78a1.89,1.89,0,0,0,1.42.4,1.85,1.85,0,0,0,1.26-.75l19.41-26.46a1.88,1.88,0,0,0-.36-2.59l-24.76-19.37a1.85,1.85,0,0,0-1.15-.4Z"/><path class="cls-2" d="M597,800.25a3.43,3.43,0,0,0,2-6.2l-13.61-10a3.43,3.43,0,0,0-4.06,5.54l13.6,10A3.51,3.51,0,0,0,597,800.25Z"/><circle class="cls-2" cx="941.52" cy="143.27" r="19.81" transform="translate(174.46 707.72) rotate(-45)"/><path class="cls-10" d="M1098.81,508.16l6.34-50.69a7.14,7.14,0,0,0-10.1-7.36l-45,21a7.14,7.14,0,0,0-1.33,12.13l38.62,29.69A7.14,7.14,0,0,0,1098.81,508.16Z"/><path class="cls-11" d="M919.11,274.82c-12.44,13.58-21.76,27.92-39,25s-28.75-20-25.66-38.18,19.57-30.48,36.83-27.54S937.38,254.88,919.11,274.82Z"/><ellipse class="cls-11" cx="859.65" cy="243.66" rx="17.72" ry="16.53" transform="translate(475.39 1050.33) rotate(-80.35)"/><path class="cls-8" d="M899.39,440.83l.89,61.42c-7.64,9-16.37,15.16-26.27,18.24v-.12l4-67.15L864.83,509a36,36,0,0,1-6.63,13.8,67.25,67.25,0,0,1-13.13-1.42c-20.64-4.26-44-17.13-42.91-41.13a6.06,6.06,0,0,0-1.71-4.73l5.58-19a93.57,93.57,0,0,1,25.22-41.36l2.63-2.51,9.19-27.48-36.49-2.9,13.36-45.72c1.42-4,4.76-17,18.15-20l33.38-1.18,20.85,3.95,27.53,17.06c3.32,2.54,7.71,10.39,7.71,14.57l10.52,45.61-39.18,3.06Z"/><polygon class="cls-12" points="856.98 354.27 868.83 344.95 873.79 352.7 874.16 352.47 868.94 344.31 868.75 344.46 857.69 353.16 865.66 320.17 865.24 320.07 856.98 354.27"/><polygon class="cls-12" points="896.94 355.28 900.81 349.81 907.77 355.6 896.45 325.4 896.04 325.56 906.79 354.23 900.72 349.18 896.59 355.03 896.94 355.28"/><polygon class="cls-12" points="844.87 387.35 845.3 387.4 850.16 344.11 849.73 344.07 844.87 387.35"/><polygon class="cls-12" points="898.84 400.16 913.31 378.47 913.3 378.39 910.62 354.53 910.19 354.58 912.86 378.36 898.48 399.92 898.84 400.16"/><polygon class="cls-2" points="868.57 320.27 885.9 397.02 896.55 348.5 892.08 322.09 868.57 320.27"/><path class="cls-3" d="M872.86,302.12l-4.3,18.15,5.78,7.54a9.77,9.77,0,0,0,17.2-3.44h0L893.91,312Z"/><polygon class="cls-13" points="874.61 292.25 895.04 307.36 892.7 318.31 872.86 302.12 874.61 292.25"/><path class="cls-3" d="M918.94,275.82c-.53,13.47-8.42,34.95-23.15,34.82-12.12-.11-23.63-14.56-23.44-32.21s11-31.85,24.11-31.72S919.62,258.18,918.94,275.82Z"/><path class="cls-11" d="M907.12,248.29s-18.77,9.16-34.38,36c0,0-8.21-11.05,3.57-31.47C885,237.75,907.12,248.29,907.12,248.29Z"/><path class="cls-14" d="M911.06,268.65a4.55,4.55,0,0,1,7.42,1.51,1.17,1.17,0,0,1-2.23.69,2.2,2.2,0,0,0-3.5-.59c-1,1.12-2.69-.49-1.69-1.61Z"/><path class="cls-14" d="M889.42,264.74c2.88-1.95,8.52-1,10.39,2a1.17,1.17,0,0,1-2,1.23c-1.21-1.94-5.38-2.46-7.18-1.24-1.25.84-2.47-1.15-1.23-2Z"/><path class="cls-13" d="M908.31,273.2a22.81,22.81,0,0,0-2.48,13.69c.1.83-1.2.87-1.3.05a23.94,23.94,0,0,1,2.64-14.36.65.65,0,0,1,1.14.62Z"/><path class="cls-13" d="M904.89,291.13a6.68,6.68,0,0,1-5.73-1c-.56-.4,0-1.35.52-.94a5.64,5.64,0,0,0,4.9.9.54.54,0,0,1,.31,1Z"/><path class="cls-13" d="M894.17,300.69A6,6,0,0,0,898.9,302c.69-.1.73,1,0,1.08a7,7,0,0,1-5.52-1.58c-.54-.44.21-1.22.75-.78Z"/><path class="cls-12" d="M803.42,490.76c0-.16-.1-.32-.14-.48l22.29,5.27,12.83-48.66-22.57-5.34.09-.42,23,5.44-13,49.5Z"/><g class="cls-15"><ellipse class="cls-8" cx="894.7" cy="278.91" rx="7.11" ry="7.43" transform="translate(469.82 1114.23) rotate(-80.35)"/></g><g class="cls-15"><ellipse class="cls-8" cx="913.41" cy="282.09" rx="7.11" ry="7.12" transform="translate(482.26 1135.32) rotate(-80.35)"/></g><line class="cls-16" x1="921.35" y1="283.21" x2="917.9" y2="281.91"/><path class="cls-8" d="M921.27,283.55a.34.34,0,0,0,.4-.21.36.36,0,0,0-.2-.46l-3.45-1.3a.37.37,0,0,0-.45.21.34.34,0,0,0,.21.45l3.44,1.3Z"/><line class="cls-16" x1="901.51" y1="281.33" x2="907" y2="282.05"/><path class="cls-8" d="M901.41,281.74h.05l5.48.73a.42.42,0,0,0,.47-.36.43.43,0,0,0-.36-.47l-5.48-.73a.42.42,0,0,0-.16.83Z"/><line class="cls-16" x1="888.4" y1="279" x2="874.67" y2="274.92"/><path class="cls-8" d="M888.29,279.46a.47.47,0,0,0,.56-.32.48.48,0,0,0-.32-.59l-13.73-4.08a.47.47,0,0,0-.58.32.45.45,0,0,0,.31.58l13.73,4.08Z"/><ellipse class="cls-3" cx="871.72" cy="283.46" rx="7.43" ry="9.34" transform="translate(-30.36 120.66) rotate(-7.78)"/><path class="cls-17" d="M866.43,280.41a4.36,4.36,0,0,1,8.11,2.52c0,.68-1.12.73-1.08,0a3.28,3.28,0,0,0-6.08-2c-.36.58-1.32.07-1-.52Z"/><circle class="cls-18" cx="870.68" cy="291.74" r="1.89"/><path class="cls-13" d="M903.15,299.15a13.63,13.63,0,0,1-10.8-5.58c-.42-.56.5-1.12.92-.57a12.45,12.45,0,0,0,9.84,5.07c.7,0,.74,1.1,0,1.08Z"/><path class="cls-12" d="M835.64,374.07l7.75,1.84.43-1.82L838,372.7l13.51-49.37a4.2,4.2,0,0,1,8.18.7l6.73,49.39-5.9,2.1.63,1.76,7.32-2.61-6.93-50.9a6.07,6.07,0,0,0-11.82-1Z"/><path class="cls-19" d="M856.62,319.83c.11-.25,2.79-6.08,13-4.08l.36-1.84c-11.81-2.29-15,4.88-15.12,5.19Z"/><path class="cls-19" d="M880.93,433.17c.81-3.33,19.77-81.78,21.14-94.81,1.43-13.52-9.39-18.42-9.5-18.47L892,321.3c.41.18,9.89,4.52,8.59,16.9-1.36,12.93-20.91,93.8-21.11,94.61Z"/><path class="cls-14" d="M861.88,374.64A14.45,14.45,0,0,0,862,377a1.18,1.18,0,0,1-1.12,1.21,1.2,1.2,0,0,1-1.21-1.13,15.52,15.52,0,0,1-.17-2.36,1.2,1.2,0,0,1,1.13-1.21,1.18,1.18,0,0,1,1.21,1.12Z"/><path class="cls-14" d="M844.64,374l-.7,2.32a1.17,1.17,0,0,1-2.27-.54l.7-2.32a1.21,1.21,0,0,1,1.41-.87,1.18,1.18,0,0,1,.86,1.41Z"/><path class="cls-14" d="M857.54,319.11l-.16.95a1.76,1.76,0,0,1-2.1,1.3,1.8,1.8,0,0,1-1.3-2.11l.16-.95a1.76,1.76,0,0,1,2.1-1.3,1.8,1.8,0,0,1,1.3,2.11Z"/><path class="cls-14" d="M879.61,432.16l1.26.44a1,1,0,0,1,.72,1.16,1,1,0,0,1-1.16.72l-1.26-.44a1,1,0,0,1-.72-1.16,1,1,0,0,1,1.16-.72Z"/><path class="cls-14" d="M878.7,434l2.16.66a1,1,0,0,1,.72,1.16,1,1,0,0,1-1.16.71l-2.16-.65a1,1,0,1,1,.44-1.88Z"/><polygon class="cls-12" points="894.13 382.63 897.51 374.94 911.75 378.3 911.85 377.88 897.26 374.43 897.19 374.6 893.73 382.45 894.13 382.63"/><path class="cls-20" d="M900.74,378.88a1.2,1.2,0,0,0,1.32-.56l4.16-7a1.22,1.22,0,1,0-2.1-1.24l-4.15,7a1.23,1.23,0,0,0,.43,1.67A1,1,0,0,0,900.74,378.88Z"/><ellipse class="cls-11" cx="911.92" cy="281.68" rx="1.82" ry="1.65" transform="translate(481.43 1133.51) rotate(-80.35)"/><ellipse class="cls-11" cx="895.5" cy="279.78" rx="1.82" ry="1.65" transform="translate(469.64 1115.75) rotate(-80.35)"/><path class="cls-3" d="M933.3,397.33l29-48.5,15.67-41.32s5.74-.86-.51,14.06c-2.77,6.62-1.76,8.35-1.76,8.35s10.83,4.1,12.2,6.85-.85,12.08-4.35,12.12c-1.58,0-2.75,3.2-5.59,4.95s-6.81,1.23-6.81,1.23S959,417.16,933.37,423l-17.91-24.23Z"/><path class="cls-17" d="M967.94,350c5.42.62,8.74-6.9,9.47-8.76,6.91,1.6,9.21-3.58,9.23-3.63l.23-.53L975,334.69l-.18.92,10.69,2.12c-.75,1.18-3.07,3.84-8.26,2.48l-.42-.11-.14.4c0,.09-3.32,9.15-8.63,8.54Z"/><polygon class="cls-21" points="888.32 427.96 925.72 371.48 974.74 385.84 934.09 438.83 888.32 427.96"/><polygon class="cls-8" points="890.22 427.54 926.22 372.76 972.68 386.77 972.75 386.54 926.12 372.48 926.07 372.56 890.03 427.41 890.22 427.54"/><path class="cls-3" d="M816.31,383.46l2.36,18.63A12.61,12.61,0,0,0,829.6,413l53.64,6.7,5.67.71,13.86,6.52a12,12,0,0,0,6.44,1.05c4.2-.49,10.71-1.83,12.11-5.45,2.1-5.45-4.89-8.56-7.74-8.5s-12.42-4.89-12.42-4.89l5-7.32-14.46,2.26L887,408.52l-46.66-15.64.37-7.48Z"/><polygon class="cls-11" points="882.58 419.62 883.22 407.24 879.36 405.95 878.88 419.15 882.58 419.62"/><circle class="cls-8" cx="880.99" cy="414.28" r="2.92"/><path class="cls-11" d="M877.7,413.5a3.38,3.38,0,1,1,2.51,4.07A3.38,3.38,0,0,1,877.7,413.5Zm.9.22a2.45,2.45,0,1,0,2.95-1.82A2.46,2.46,0,0,0,878.6,413.72Z"/><rect class="cls-8" x="726.75" y="134.6" width="106.68" height="6.29"/><rect class="cls-8" x="726.75" y="147.69" width="85.34" height="6.29"/><rect class="cls-8" x="726.75" y="160.78" width="68.19" height="6.29"/><line class="cls-22" x1="750.06" y1="543.12" x2="922.57" y2="587.48"/><line class="cls-22" x1="745.13" y1="565.3" x2="917.64" y2="609.66"/><line class="cls-22" x1="740.2" y1="587.48" x2="912.71" y2="631.84"/><line class="cls-22" x1="735.27" y1="609.66" x2="907.79" y2="654.02"/><line class="cls-22" x1="730.34" y1="631.84" x2="850.16" y2="662.65"/><circle class="cls-2" cx="233.25" cy="729.11" r="12.63"/><circle class="cls-2" cx="1105.25" cy="743.11" r="12.63"/></svg>