<svg xmlns="http://www.w3.org/2000/svg" viewBox="0 0 1200 1200"><defs><style>.cls-1{fill:#f7b503;}.cls-14,.cls-17,.cls-2{fill:#243550;}.cls-3{fill:#71c1ac;}.cls-4{fill:#eff8f6;}.cls-5{fill:#d0eae3;}.cls-6{fill:#12100b;}.cls-7{fill:#875d34;}.cls-18,.cls-8{fill:none;}.cls-8{stroke:#91cfbe;stroke-width:2.93px;}.cls-10,.cls-11,.cls-14,.cls-17,.cls-19,.cls-8{stroke-miterlimit:10;}.cls-9{fill:#556277;}.cls-10{fill:#aaa5a4;stroke:#797675;stroke-width:1.13px;}.cls-11{fill:#797675;stroke:#aaa5a4;stroke-width:1.1px;}.cls-12{fill:#705126;}.cls-13{fill:#fff;}.cls-14,.cls-19{stroke:#ced2d8;}.cls-14,.cls-17,.cls-19{stroke-width:1.46px;}.cls-15{fill:#467379;}.cls-15,.cls-16,.cls-18{stroke:#71c1ac;stroke-linecap:round;stroke-linejoin:round;}.cls-15,.cls-16{stroke-width:1.37px;}.cls-16{fill:#dff1ed;}.cls-17{stroke:#e7e9ec;}.cls-18{stroke-width:4.39px;}.cls-19{fill:#e7e9ec;}</style></defs><g id="Calque_2" data-name="Calque 2"><circle class="cls-1" cx="182.78" cy="708.6" r="12.63"/><circle class="cls-2" cx="1044.78" cy="798.6" r="12.63"/></g><g id="Calque_1" data-name="Calque 1"><path class="cls-3" d="M1090.42,623.59a159.45,159.45,0,0,1-3.69,21.47c-.31,1.45-.66,2.91-1.06,4.36-6.38,23.71-18,46.07-34,66.75-.92,1.18-1.85,2.37-2.82,3.56-109.6,135.92-410.69,196.64-654.36,95.08-2.25-.92-4.49-1.89-6.74-2.86A587.69,587.69,0,0,1,328,782.08c-93.68-53.81-154.71-127.29-186.39-204.65a0,0,0,0,1,0,0c-1.58-3.92-3.08-7.83-4.53-11.79-49.37-133.67-12.28-276.5,94.42-348.26q1.84-1.32,3.83-2.51C262,197.49,293,184.56,328,177.25c7.92-1.67,15.66-2.9,23.32-3.78,1.45-.22,2.9-.35,4.35-.48,113.26-11.44,197.21,57.28,265.81,130,1.05,1.1,2.07,2.2,3.08,3.26,23.32,24.81,44.79,50,65.12,72.47,1,1.1,2,2.2,3,3.3,46.72,51.3,87.07,87.38,128,70.53C970.83,390.74,1110.4,429.33,1090.42,623.59Z"/><ellipse class="cls-4" cx="600" cy="1009.56" rx="550" ry="23.74"/><ellipse class="cls-5" cx="588.61" cy="1010.4" rx="312.01" ry="12.81"/><path class="cls-6" d="M502.55,281.69a11.46,11.46,0,0,1,20.88.93c1.68,4.28.87,9.72,4.2,12.91,3.5,3.35,9.74,2.25,13.24,5.59,4.47,4.27,1.3,12.08,4,17.64,2.12,4.45,7.57,6.6,9.75,11,3.77,7.69-4.28,16.74-2.16,25,1.83,7.13,10.64,11.26,11.43,18.57.89,8.28-8.94,14.17-10,22.43-1.21,9.55,9.7,18.32,6.64,27.45-1.48,4.42-6.08,7.85-5.83,12.5.22,4.18,4.32,7.13,5.55,11.14s-.72,8.43-3.76,11.34-7,4.59-10.92,6.22c-11.48,4.81-23.26,9.68-35.71,10.33-13.78.72-27.23-3.79-40.28-8.25-10.89-3.71-22.45-7.9-29.3-17.08-6-8-7.31-18.46-8.37-28.38-2.1-19.63-4-39.48-1.4-59s10-39.08,24.19-52.94"/><path class="cls-6" d="M508,432.86c-1.38,6.59,2.91,13.83,9.58,16.16,2.58.91,5.64,1.27,7.35,3.31,3.41,4.06-1.39,11,2.2,15,3.34,3.66,9.83.68,14.7,2.14,3.25,1,5.38,3.8,7.59,6.24s5.24,4.83,8.61,4.37c5.49-.75,7.44-8.23,12.84-9.46,1-.23,2.12-.21,3.13-.51,2.93-.88,4.3-4.24,3.92-7.12s-2-5.44-3.42-8-2.53-5.54-1.8-8.36c1.21-4.67,7.17-7.59,7.32-12.39.12-3.78-3.42-6.61-5.62-9.76a15.75,15.75,0,0,1,.1-17.88c3-4.12,8.18-7.76,7.37-12.67-.73-4.51-6.28-6.92-8-11.17-2-4.75,1.31-10.48-1-15.09-2-4-7.17-5.32-11.08-7.73a17.86,17.86,0,0,1-8.46-13.74A17.16,17.16,0,0,0,548,364.5"/><path class="cls-1" d="M522.42,407.16c2.69,4.19,3.36,10.26-.16,14.22-3,3.35-8.23,4.81-11.88,1.65a7.35,7.35,0,0,1-2.74-6.36,2.27,2.27,0,0,0-1.53-2.7,2.2,2.2,0,0,0-2.7,1.53,12.05,12.05,0,0,0,11.53,13.69c7.06.15,13-5.63,13.95-12.44a17.59,17.59,0,0,0-2.68-11.8c-1.53-2.37-5.33-.17-3.79,2.21Z"/><path class="cls-2" d="M757,776.87S636,714.5,581.23,544.41c-43-133.55-273.74-87.56-302.09-21.41s-26.76,417.18,41.28,466.32,444.69,40.73,474.37,14.34C845.82,958.31,849.6,814.67,757,776.87Z"/><path class="cls-7" d="M820.89,828l42.42,131.15,59.05,36.73,24.77,5.1a18.73,18.73,0,0,1,13.77,11.77h0l-50.72,7.84L875.86,1005l-26.06,1.06c-10,0-13.57-7.51-13.57-17.46V966.86l-42.41-78Z"/><path class="cls-1" d="M839.31,1006.49l36.55-1.49,30.35,9.27,9-23.14s34.6,4.62,48.22,16a6.39,6.39,0,0,1-2.38,11c-14.57,4.26-45.36,12.5-53.87,8.81L875.86,1010l-4.36,12.74-26.63-1.16Z"/><path class="cls-7" d="M860.3,739.15l41,74.25L960.9,867l23.81,4.87c7.78,1.5,4.39,5.85,4.39,5.85l-37.41,15.32c-18.11-.92-28.41-17.27-45.86-24.21h0l-16.6-.66a16.42,16.42,0,0,1-15.7-17.76l2.33-28-45.34-52.36Z"/><path class="cls-1" d="M874.05,898.77l30.29-11.56,42.2,1.06,9.75-25.39s32.21-3.64,48.67,4.32a5,5,0,0,1,.2,8.93c-11.87,6.63-38.36,19.91-66.59,24.06l-30.41-8.84-1.31,13.19-23,7.66Z"/><path class="cls-5" d="M441.9,750.87s8.62,65.17,81.47,59.71,185.77-35.51,185.77-35.51l78.61,127.35L881.35,749,790.76,620.49A37.11,37.11,0,0,0,743,607L589.21,668.82Z"/><path class="cls-8" d="M773,702.25S645.93,795.8,525.44,808"/><path class="cls-9" d="M319.53,519c22.13-5.47,41.76,9.94,52.26,28.16,11,19.08,16.39,41.92,21.26,63.22a443.54,443.54,0,0,1,10.25,70.68c1.43,22.5,1.2,45.18,5.31,67.43,3.35,18.16,9.94,36.16,21.5,50.75s28.05,23.95,46.17,28.4c40.82,10,84.69-3.24,124.55,11.64,46.74,17.45,65.92,68.45,81.37,111.52,1.47,4.1,8.07,2.33,6.58-1.82C675,910.39,659.6,869.29,624.94,844.5c-36.44-26.06-81.23-16.87-123-19.89-21.67-1.57-44.07-7-60.12-22.54-15.77-15.29-23.57-36.89-27.13-58.14-4.09-24.43-3.25-49.38-5.42-74a454.39,454.39,0,0,0-11.6-69.52c-5.67-22.88-12-47.88-26.8-66.78-12.52-16-32.77-26.28-53.17-21.24-4.27,1.05-2.46,7.64,1.81,6.59Z"/><path class="cls-7" d="M536.25,349.26c5.56,37-12.35,70.77-31.05,72.43-28,2.48-64-20.33-69.53-57.29s12.44-70.31,40.21-74.49S530.69,312.3,536.25,349.26Z"/><path class="cls-10" d="M622,508.54c5.32-21.31,17.43-67,21.84-83.57a8.32,8.32,0,0,1,8-6.17h33.34a8.32,8.32,0,0,1,8.09,10.26L674,509.55a8.31,8.31,0,0,1-7.41,6.35l-35.84,2.94A8.31,8.31,0,0,1,622,508.54Z"/><path class="cls-11" d="M626.51,512.67c5-21.31,16.33-67,20.46-83.57a7.87,7.87,0,0,1,7.52-6.17h31.23c5,0,8.76,5,7.58,10.26l-18.08,80.49a8,8,0,0,1-6.94,6.35L634.71,523C629.39,523.44,625.22,518.2,626.51,512.67Z"/><path class="cls-7" d="M568,491.68l41.39,88.06,63.15-64.33L691,437.64S710.31,449,714.5,462.25,681.91,539,681.91,539s-32.78,89.22-71.12,97.25-87.42-133.9-87.42-133.9"/><path class="cls-7" d="M454.27,413.38c-1.21,15.73-18.65,47.44-28.2,49.91s-18.78,7.59-24.24,15.81c-2.59,3.9-2.1,20.11,2,20.71s14.11-.95,18.28-1.13c32-1.36,62.63,23.69,93.63,15.69C534.28,509.6,549,493.59,568,491.68c-2.63-11.58-9.93-19.52-20.28-23.21s-32.17-6.39-42.15-11-7.87-19.16-5.48-35.8"/><polygon class="cls-3" points="410.45 546.5 463.4 673.63 434.66 759.59 516.21 741.93 589.21 668.82 556.47 673.08 568.04 546.5 550.69 508.25 410.45 546.5"/><path class="cls-6" d="M487.49,339.17c3.3-2.48,9.46-3,12.73-.12,2.64,2.31,6.54-1.55,3.88-3.88-5-4.39-14-4.76-19.38-.74-2.78,2.1-.05,6.86,2.77,4.74Z"/><path class="cls-6" d="M527.12,338.39a3.24,3.24,0,0,1,4.14-.59,2.82,2.82,0,0,0,3.88,0,2.76,2.76,0,0,0,0-3.87,8.77,8.77,0,0,0-12.76,1.69,2.75,2.75,0,0,0,1,3.75,2.79,2.79,0,0,0,3.75-1Z"/><path class="cls-12" d="M457.13,400l9.1,7.25a64.77,64.77,0,0,0,25.58,12.39l8.82,2.07S500,439,494.07,440.05s-33.87-18.69-36.94-27.87S457.13,400,457.13,400Z"/><path class="cls-6" d="M501.1,292.37c-1.82,1.52-1.48,4.57,0,6.4s3.8,2.77,5.93,3.8,4.34,2.35,5.3,4.51c1.41,3.19-.35,7.05.82,10.33,2.05,5.76,10.86,5.56,14.52,10.45,1.23,1.64,1.76,3.74,3.08,5.31s4.09,2.29,5.3.64c1.11-1.49.09-3.58-.94-5.12a270,270,0,0,0-28-35.29"/><path class="cls-6" d="M526.28,355.3v2.34a2.75,2.75,0,0,0,5.49,0V355.3a2.77,2.77,0,0,0-2.74-2.74,2.8,2.8,0,0,0-2.75,2.74Z"/><path class="cls-6" d="M491.57,355.45l.3,2.05a2.74,2.74,0,0,0,3.37,1.91,2.82,2.82,0,0,0,1.92-3.37l-.3-2a2.74,2.74,0,0,0-3.37-1.92,2.84,2.84,0,0,0-1.92,3.37Z"/><path class="cls-12" d="M516.24,352.67a31.78,31.78,0,0,0,4.58,17.24c1.1,1.84,4,.16,2.88-1.68a28.42,28.42,0,0,1-4.12-15.56c0-2.15-3.29-2.14-3.34,0Z"/><path class="cls-12" d="M521.2,378.69a18,18,0,0,1-10,1.17c-3.46-.61-4.94,4.68-1.46,5.29A23.21,23.21,0,0,0,522.65,384c3.24-1.29,1.83-6.59-1.45-5.29Z"/><path class="cls-12" d="M521.18,394.69a43.33,43.33,0,0,1-30.78-1.93c-1.94-.88-3.64,2-1.68,2.88a46.91,46.91,0,0,0,33.35,2.27c2-.62,1.18-3.84-.89-3.22Z"/><path class="cls-12" d="M503.64,406.83a12.61,12.61,0,0,0,9.37.46c2-.71,1.15-3.93-.88-3.22a9.26,9.26,0,0,1-6.81-.12c-1.95-.84-3.65,2-1.68,2.88Z"/><path class="cls-6" d="M494.25,305.65c-2.14,1.91-4.38,4-5.17,6.71-1.68,5.86,3.87,12.11,1.88,17.88-2.38,6.9-13.24,7.26-16.39,13.85-3.51,7.33,5.23,15.76,3,23.58-1,3.5-4,6-6.92,8.25-16.06,12.29,4.38,20.33-4.54,34.6-3.32,5.32-8.26,10.4-8,16.66.28,5.86,5.28,11.25,3.85,16.95-1.95,7.75-13.21,8.42-18.4,14.52-4.71,5.55-3.72,14.86-9.54,19.25-5.08,3.83-31.88,2-32.19,8.31-8.8-3.22-18.63-8.31-24-16s-7.12-18.12-2.87-26.41c2.12-4.14,5.59-7.59,7.06-12,4.06-12.28-9-24.91-6.21-37.53,2.22-10.2,13.77-16,17.2-25.86,4-11.39-4-24.92,1.6-35.62,4.41-8.42,15.51-11.42,20.63-19.43,4.13-6.47,3.91-15.55,9.72-20.59,5.66-4.93,14.34-3.69,21.46-6.14,4.7-1.62,8.64-4.84,12.75-7.63s8.8-5.25,13.78-5,10.06,4.12,9.91,9.06a12,12,0,0,1,15.88-1C507.29,289.09,500.54,300,494.25,305.65Z"/><path class="cls-7" d="M460.8,500.2l61.12,91.37,89.75-75,4.68-46.13,20.13-19.31-6.74,26.34s53.28-38.09,58-32.24-14,23.39-14,23.39-11.11,40.78-15.79,45.74-30.25,18.23-30.25,18.23S566.85,637.35,520.07,645.54,406.18,521.25,401.33,500.2"/><path class="cls-13" d="M401.13,497.62c-1.56,22.51-5.08,34.93-.9,57.1,14.65-8.38,35.73-8.25,52.27-4.87,11.41,2.34,60.36,1.08,73.06-4.05,22.28-9,46.14-13.22,69.79-17.4-6-5.06-27.24-36.15-27.24-36.15-4-.69-55.54,18.59-101.78,6.16-19.23-5.18-46.22-6.83-65.2-.79"/><polygon class="cls-13" points="633.45 407.58 611.37 375.3 597.95 375.66 629.36 408.99 633.45 407.58"/><polygon class="cls-13" points="638.33 404.07 630.65 373.83 639.17 369.38 641.87 402.86 638.33 404.07"/><polygon class="cls-13" points="625.13 413.49 596.44 398.26 595.95 408.32 624.28 416.53 625.13 413.49"/><path class="cls-1" d="M606,517.74a29.33,29.33,0,0,0,6.06,16.7,23.74,23.74,0,0,0,6.76,6.26c2.69,1.54,6.23,2.1,8.71-.12,2.15-1.93,2.91-5.9.41-7.88a2.28,2.28,0,0,0-3.11,0,2.22,2.22,0,0,0,0,3.11s.57.4.29.23c-.08,0,0,0,0,.08a1.22,1.22,0,0,1-.25.84,1.52,1.52,0,0,1-.61.6c.15-.08-.48.13-.51.14a3.13,3.13,0,0,1-.81,0c-2.58-.41-4.89-2.91-6.52-4.77a24.69,24.69,0,0,1-6-15.16c-.11-2.81-4.5-2.83-4.39,0Z"/><path class="cls-1" d="M607.76,516.58c-5.38.28-8.06,5.18-8.54,10A38,38,0,0,0,601,541.42c1.4,4.43,3.47,9.21,6.78,12.56,3.07,3.11,8.19,4.8,12.12,2.19,3.78-2.51,4.23-8.75,0-11.11-2.46-1.39-4.67,2.4-2.21,3.79,1.58.88.81,3.3-.73,3.93-2.77,1.12-5.53-1-7.13-3.06-4.28-5.58-6.3-13.29-6.39-20.23,0-2.88.3-8.32,4.25-8.53,2.81-.14,2.83-4.53,0-4.38Z"/><path class="cls-1" d="M468.52,401.75c4.92,2.91,8.45,8.77,6.06,14.46a7.64,7.64,0,0,1-5.41,4.65,6.72,6.72,0,0,1-6.56-2.11,2.19,2.19,0,0,0-3.1,3.1c4,4.63,11.4,4.53,15.85.65,4.82-4.2,5.43-11.49,2.68-17a18.9,18.9,0,0,0-7.3-7.56c-2.44-1.44-4.65,2.36-2.22,3.79Z"/><path class="cls-14" d="M760.49,395.77H710.78l-19.92,15.52a2.15,2.15,0,0,1-3.41-2.19l3.14-13.33h-5.53a13.91,13.91,0,0,1-13.91-13.91v-50.7a13.91,13.91,0,0,1,13.91-13.91h75.43a13.9,13.9,0,0,1,13.91,13.91v50.7A13.91,13.91,0,0,1,760.49,395.77Z"/><circle class="cls-15" cx="745.6" cy="336.75" r="13.2" transform="translate(-19.74 625.85) rotate(-45)"/><polyline class="cls-15" points="749.68 330.86 745.6 336.75 751.5 336.75"/><line class="cls-16" x1="745.6" y1="324.77" x2="745.6" y2="325.78"/><line class="cls-16" x1="745.6" y1="347.72" x2="745.6" y2="348.73"/><line class="cls-16" x1="757.58" y1="336.75" x2="756.57" y2="336.75"/><line class="cls-16" x1="734.63" y1="336.75" x2="733.62" y2="336.75"/><path class="cls-17" d="M745.55,362.62a10.16,10.16,0,0,0-10.16,10.16c0,9.13,10.16,16.18,10.16,16.18s10.15-6.19,10.15-16.18A10.15,10.15,0,0,0,745.55,362.62Zm0,12.06a4.14,4.14,0,1,1,4.13-4.14A4.13,4.13,0,0,1,745.55,374.68Z"/><circle class="cls-15" cx="696.29" cy="357.99" r="16.88" transform="translate(231.39 987.94) rotate(-80.78)"/><polyline class="cls-18" points="688.58 354.13 694.97 362.62 709.4 338.61"/><line class="cls-19" x1="720.53" y1="317.7" x2="720.53" y2="395.77"/><line class="cls-19" x1="720.53" y1="356.31" x2="773.98" y2="356.31"/></g></svg>