<svg xmlns="http://www.w3.org/2000/svg" viewBox="0 0 1200 1200"><defs><style>.cls-1,.cls-17,.cls-33{fill:#fff;}.cls-2{fill:#f7b503;}.cls-3{fill:#243550;}.cls-4{fill:#d0eae3;}.cls-5{fill:#eff8f6;}.cls-6{fill:#e4ebf7;}.cls-7{fill:#71c1ac;}.cls-8{fill:#875d34;}.cls-14,.cls-9{fill:#1d1d1b;}.cls-33,.cls-9{stroke:#1d1d1b;}.cls-11,.cls-21,.cls-22,.cls-23,.cls-25,.cls-26,.cls-30,.cls-31,.cls-33,.cls-9{stroke-miterlimit:10;}.cls-11,.cls-9{stroke-width:0.65px;}.cls-10{fill:#12100b;}.cls-11,.cls-21,.cls-22,.cls-23,.cls-27{fill:none;}.cls-11,.cls-21{stroke:#cbcbcb;}.cls-12{fill:#9ea5b1;}.cls-13{fill:#705126;}.cls-15{fill:#775247;}.cls-16{fill:#704526;}.cls-17{opacity:0.26;}.cls-18,.cls-19,.cls-20{fill:#e3f3fa;stroke:#fff;}.cls-18,.cls-19,.cls-20,.cls-27{stroke-linecap:round;stroke-linejoin:round;}.cls-18{stroke-width:1.05px;}.cls-19{stroke-width:1.27px;}.cls-20{stroke-width:1.41px;}.cls-21,.cls-22{stroke-width:2.8px;}.cls-22,.cls-23{stroke:#7e7e7e;}.cls-23{stroke-width:2.31px;}.cls-24{fill:#878587;}.cls-25{fill:#c0e3da;}.cls-25,.cls-26,.cls-30,.cls-31{stroke:#797675;}.cls-25,.cls-26{stroke-width:1.08px;}.cls-26,.cls-31{fill:#797675;}.cls-27{stroke:#243550;stroke-width:3.66px;}.cls-28{fill:#556277;}.cls-29{fill:#b6bcc5;}.cls-30{fill:#ccc;}.cls-30,.cls-31{stroke-width:1.3px;}.cls-32{fill:#6d788a;}.cls-33{stroke-width:3.89px;}</style></defs><g id="Calque_2" data-name="Calque 2"><rect class="cls-1" x="1113.92" y="411.97" width="41.76" height="41.76"/><circle class="cls-2" cx="1069.7" cy="889.45" r="12.63"/><circle class="cls-2" cx="805.7" cy="171.45" r="12.63"/><circle class="cls-3" cx="135.7" cy="950.45" r="12.63"/></g><g id="Calque_1" data-name="Calque 1"><path class="cls-4" d="M606.48,1027.13c0,19.11-93.18,34.59-208.11,34.59s-208.12-15.48-208.12-34.59,93.18-34.58,208.12-34.58S606.48,1008,606.48,1027.13Z"/><path class="cls-5" d="M901.55,927.36c-137.21,0-248.44,13.82-248.44,30.87,0,6.37,15.56,12.29,42.21,17.21-5.4,2.86-8.35,5.95-8.35,9.17,0,14.58,60.18,26.39,134.43,26.39,67.71,0,123.7-9.83,133-22.61,111.8-3,195.57-15.37,195.57-30.16C1150,941.18,1038.77,927.36,901.55,927.36Z"/><ellipse class="cls-5" cx="1003.44" cy="1010.01" rx="31.05" ry="7.97"/><path class="cls-4" d="M1039.47,958.64c0,10.77-68.43,19.5-152.85,19.5s-152.85-8.73-152.85-19.5,68.43-19.5,152.85-19.5S1039.47,947.87,1039.47,958.64Z"/><polygon class="cls-6" points="631.56 137.2 631.55 137.2 631.56 147 631.56 137.2"/><path class="cls-3" d="M632.54,419.55A347.27,347.27,0,0,1,708.18,530.4a346.07,346.07,0,0,1,0,271.66,347.08,347.08,0,0,1-28,52.54A257,257,0,0,1,746,869.32c3.15,1.13,6.26,2.26,9.32,3.47,35.62,13.87,65.84,31.75,100.87,40.85a231.39,231.39,0,0,0,58,7.51c73,0,138.92-36.09,171.89-99.06.86-1.63,1.71-3.25,2.52-4.91,20.9-43,26.8-98,10-162.12q-8.44-32.28-18.38-62.41c-.45-1.4-.9-2.84-1.39-4.23-6-18.2-12.39-35.76-19-52.78-.59-1.4-1.13-2.79-1.67-4.19q-13.23-33-28-63.13c-.68-1.4-1.35-2.8-2.07-4.19-28.69-58-61.43-107.76-96.42-149.6-1.21-1.44-2.43-2.88-3.64-4.27-39-45.8-80.79-81.83-123-108.17-1.71-1.08-3.38-2.12-5.09-3.11-57.42-34.84-115.47-52-168.36-52q-9.76,0-19.29.78l-5.63.54c-37.33,4-71.37,17.07-99.92,39-1.26.95-2.52,1.94-3.74,3a187.14,187.14,0,0,0-29,29.22c-1.13,1.35-2.21,2.75-3.25,4.15-2.47,3.19-4.82,6.48-7.11,9.9-16.32,24.31-30.2,54.11-44.94,85.61A353.57,353.57,0,0,1,632.54,419.55Z"/><path class="cls-4" d="M324.67,941.54c-36.28,0-67-6-94-18.33-29.19-13.34-53.42-34.28-72-62.25-1-1.48-2-3-3-4.61a247.82,247.82,0,0,1-25-54.25c-19.19-57.8-4.81-126,41.58-197.37,1.49-2.28,2.82-4.29,4.05-6.12,28.74-42.59,68.49-85.25,115-123.4,4.21-3.44,8.43-7.19,12.54-11.14l.36-.34.37-.32c.82-.72,1.75-1.61,2.75-2.64l.18-.19.18-.17c20.47-20.1,39.2-45.47,57.29-77.59l1.3-2.3.94-1.65c7.59-13.75,14.6-27.76,21.31-41.71-1.76,0-3.52-.06-5.29-.06C199.17,337.1,50,484.45,50,666.23S199.17,995.35,383.17,995.35A334.07,334.07,0,0,0,641.74,873.77c-31.22,1.92-65.18,9.27-103.3,22.38C448.36,927.12,380.43,941.54,324.67,941.54Z"/><path class="cls-7" d="M409.73,338.14c-7.93,16.68-16.25,33.62-25.46,50.29l-2.3,4.05c-16.48,29.27-35.84,57.6-60.61,81.92-1.31,1.35-2.66,2.65-4,3.82q-6.62,6.36-13.69,12.16c-44,36.07-82.63,77-111.14,119.2-1.3,1.94-2.61,3.92-3.87,5.86-39.81,61.19-57.87,124.87-39.4,180.48,6.35,19.23,14.09,35.89,23.14,50.21q1.16,2,2.44,3.79c34.38,51.87,86.22,72,149.84,72,60.21,0,131-18,207.39-44.32,50.08-17.22,90.65-23.85,125-24a324.82,324.82,0,0,0,59.29-187.42C716.34,493.28,581.31,351.51,409.73,338.14Z"/><path class="cls-1" d="M403.72,327.91q2.25-4.79,4.48-9.54c-3.51-.25-7-.43-10.56-.57q-2.25,4.81-4.54,9.65C396.65,327.55,400.18,327.71,403.72,327.91Z"/><path class="cls-1" d="M662.14,863.49q-3.6,4.95-7.39,9.8c1.06,0,2.14,0,3.19,0,3,0,6,.06,9,.17q3.51-4.68,6.85-9.48Q668,863.58,662.14,863.49Z"/><path class="cls-1" d="M668.9,853.88q-3.28,4.86-6.76,9.61,5.9.09,11.68.45,3.23-4.62,6.31-9.34Q674.63,854.12,668.9,853.88Z"/><path class="cls-1" d="M418.63,319.22c-3.47-.34-6.95-.61-10.43-.85q-2.22,4.75-4.48,9.54c3.5.21,7,.46,10.47.77Z"/><path class="cls-1" d="M399.18,337.48q2.28-4.78,4.54-9.57c-3.54-.2-7.07-.36-10.62-.46q-2.3,4.85-4.64,9.71C392,337.22,395.62,337.32,399.18,337.48Z"/><path class="cls-1" d="M649.82,863.58q-3.95,5.17-8.08,10.19,6.59-.4,13-.48,3.79-4.85,7.39-9.8c-1.39,0-2.79,0-4.2,0C655.25,863.45,652.54,863.5,649.82,863.58Z"/><path class="cls-1" d="M657.94,853.64h-.89c-2.36,3.35-4.76,6.67-7.23,9.93,2.72-.08,5.43-.13,8.12-.13,1.41,0,2.81,0,4.2,0q3.47-4.75,6.76-9.61C665.31,853.73,661.67,853.64,657.94,853.64Z"/><path class="cls-1" d="M409.73,338.14q2.25-4.75,4.46-9.46c-3.48-.31-7-.56-10.47-.77q-2.25,4.79-4.54,9.57C402.71,337.65,406.22,337.87,409.73,338.14Z"/><polygon class="cls-8" points="935.71 787.28 951.24 894.99 977.22 948.58 997.03 958.34 958.55 958.85 949.79 940.94 931.05 935.03 934.93 909.24 899.14 822.96 888.77 785.8 935.71 787.28"/><polygon class="cls-8" points="824.07 779.12 806.11 914.78 816.69 951.91 802.67 964.65 784.23 955.9 790.89 907.16 774.82 777.75 824.07 779.12"/><path class="cls-9" d="M933,922.42l35,30.39,9.22-4.23,16.88,4.24c2.13.44,5.22,2.8,4.51,4.85h0c-.5,1.43-3.68,2.25-5.19,2.27L958.48,961l-3.31-6.41a33.71,33.71,0,0,0-20.4-16.88h0l1.33,20.42-3.16-.1-4-23.07Z"/><path class="cls-9" d="M784.47,952.55h0a31.85,31.85,0,0,1,30.8-1.35l1.42.71-6.9,11.38a10.57,10.57,0,0,1-16.65,1.86l-8.91-9.25Z"/><path class="cls-10" d="M860.53,275.72c-13.48,24.12-22.14,48.28-48.36,49.95s-48.9-19.31-50.66-46.88,18.06-51.27,44.28-52.94S880.33,240.28,860.53,275.72Z"/><ellipse class="cls-10" cx="762.94" cy="250.74" rx="24.81" ry="26.59" transform="translate(-14.43 49.14) rotate(-3.65)"/><path class="cls-7" d="M888.26,545.75l30.07,108.54,26.25,189.07h0A29.61,29.61,0,0,1,909,851.71l-3.41-1.59-63-213.19L814.27,859.38h0c-13.41,6.91-23.84,9.13-33.48-2.47l-17.7-203.76,4.17-91.71Z"/><path class="cls-1" d="M804.75,352.07l-48.34,13.24c-18.51,9-18.91,29.11-19.6,35.44l-3.73,71.38,54.29-8.36-3.93,43.3-3,4.57a140.36,140.36,0,0,0-22.56,69.11l-6,112.84,58-2.34a54.21,54.21,0,0,0,52-54.17v-86l17.34,99.45a38.11,38.11,0,0,0,43,31.16l5.13-2.88L888.82,525.61l-14.93-60,56.16-18-31.11-63c-1.44-6.11-10.56-16.05-16.28-18.61l-46.09-15.41Z"/><polyline class="cls-11" points="821.47 404.86 811.28 395 797.55 412.25 797.81 360.39"/><polyline class="cls-11" points="855.63 400.75 859.52 391.09 870.9 396.76 844.63 357.59"/><line class="cls-11" x1="791.29" y1="465.63" x2="783.44" y2="400.75"/><polyline class="cls-11" points="875.34 395.16 887.5 429.08 873.89 465.63"/><polygon class="cls-12" points="802.41 359.53 854.22 465.63 853.02 391.09 837.38 354.08 802.41 359.53"/><path class="cls-8" d="M802.41,331.54v28l11,9a14.66,14.66,0,0,0,23.93-11h0l-.81-18.86Z"/><polygon class="cls-13" points="801.57 316.52 836.62 331.54 836.98 348.33 802.41 331.54 801.57 316.52"/><path class="cls-8" d="M860.62,277.24c3.89,19.85-.22,53.93-21.77,58.83-17.74,4-39.54-13.1-45.36-38.94s5-50.3,24.27-54.64S855.54,251.24,860.62,277.24Z"/><path class="cls-10" d="M833.87,241.12S809.61,261,796.08,305.55c0,0-15.79-13.3-5.65-47.19C797.91,233.36,833.87,241.12,833.87,241.12Z"/><path class="cls-14" d="M849.68,271.25c.06-.15.16-.28.23-.42s-.25.28,0,.05l.15-.17.21-.2s.23-.22,0-.05.06,0,.11-.07l.21-.13c.16-.1.32-.17.49-.26s-.32.11,0,0l.25-.08c.21-.07.42-.11.63-.16s0,0-.08,0a.93.93,0,0,1,.33,0h.6l.27,0s-.4-.07,0,0a4.75,4.75,0,0,1,.57.14l.25.08c.31.1-.2-.1,0,0s.33.17.48.27a1.37,1.37,0,0,1,.2.13c.32.21-.18-.18,0,0l.36.36s-.22-.33-.07-.09l.16.27a1.75,1.75,0,1,0,3-1.76,6.28,6.28,0,0,0-5.79-2.89c-2.15.11-4.58,1.18-5.56,3.23a1.79,1.79,0,0,0,.63,2.39,1.77,1.77,0,0,0,2.4-.62Z"/><path class="cls-14" d="M816.17,273.72c.13-.15.27-.29.4-.43s.17-.14,0,0l.29-.2a6.43,6.43,0,0,1,1.26-.63,11.62,11.62,0,0,1,3.49-.73,11.33,11.33,0,0,1,3.4.3,6.32,6.32,0,0,1,1.28.46l.29.16s.3.2.15.09.08.07.1.1a2.83,2.83,0,0,1,.24.25,1.75,1.75,0,1,0,2.47-2.48,6.82,6.82,0,0,0-3.3-1.87,14.18,14.18,0,0,0-4.63-.51,14.81,14.81,0,0,0-4.52.89,7.67,7.67,0,0,0-3.41,2.16,1.8,1.8,0,0,0,0,2.47,1.75,1.75,0,0,0,2.47,0Z"/><path class="cls-15" d="M842.32,276.57a34.88,34.88,0,0,0,1.1,21.88c.46,1.16,2.34.65,1.88-.52a33.13,33.13,0,0,1-1.1-20.84,1,1,0,0,0-1.88-.52Z"/><path class="cls-16" d="M844.58,303a8.17,8.17,0,0,1-7.27.45.85.85,0,0,0-1.11.3.81.81,0,0,0,.29,1.11,9.92,9.92,0,0,0,8.91-.45.82.82,0,0,0-.82-1.41Z"/><path class="cls-16" d="M832.22,323.5a10.33,10.33,0,0,0,8.61.4.84.84,0,0,0,.57-1,.82.82,0,0,0-1-.57,8.77,8.77,0,0,1-7.36-.24c-.93-.47-1.75.93-.82,1.4Z"/><polyline class="cls-11" points="767.26 554.52 802.41 554.52 800.46 630.66 760.65 630.66"/><ellipse class="cls-17" cx="826.3" cy="290.12" rx="11.14" ry="10.66" transform="matrix(1, -0.06, 0.06, 1, -16.81, 53.26)"/><ellipse class="cls-17" cx="854.71" cy="288.3" rx="10.69" ry="10.66" transform="translate(-16.64 55.07) rotate(-3.65)"/><line class="cls-18" x1="866.7" y1="287.2" x2="861.21" y2="286.49"/><line class="cls-19" x1="837.08" y1="291.29" x2="845.34" y2="290.46"/><line class="cls-20" x1="817.13" y1="292.43" x2="795.67" y2="291.21"/><ellipse class="cls-8" cx="794.32" cy="304.7" rx="11.15" ry="14.02" transform="translate(-56.44 306.13) rotate(-21.08)"/><path class="cls-16" d="M787.1,302.49a4.88,4.88,0,0,1,9.55.66.86.86,0,0,0,.81.82.82.82,0,0,0,.81-.82,6.5,6.5,0,0,0-12.73-1.09.81.81,0,0,0,1.56.43Z"/><circle class="cls-2" cx="795.65" cy="317.14" r="2.83"/><path class="cls-16" d="M845.2,315.19a18.37,18.37,0,0,1-16.13-4c-.78-.68-1.93.46-1.15,1.15a20.1,20.1,0,0,0,17.71,4.42c1-.24.59-1.81-.43-1.57Z"/><path class="cls-21" d="M810.43,444.19l8.83-5.72L792,367.6a7.71,7.71,0,0,0-8.46-4.84h0a7.71,7.71,0,0,0-6.44,7.09l-2.74,78.22h10.51"/><path class="cls-22" d="M783.44,362.77s1.86-10.94,19-11.62"/><path class="cls-23" d="M837.13,351.83s16.8,3.06,19.31,22.71,1.85,145.59,1.85,145.59"/><path class="cls-14" d="M808,442.18a22.52,22.52,0,0,0,1.05,3.39,1.35,1.35,0,0,0,.32.6,1.25,1.25,0,0,0,.49.45,1.77,1.77,0,0,0,1.35.17,1.74,1.74,0,0,0,1-.8,1.69,1.69,0,0,0,.18-1.35,21.42,21.42,0,0,1-1.05-3.39,1.77,1.77,0,0,0-2.16-1.23,1.76,1.76,0,0,0-1,.81,1.86,1.86,0,0,0-.18,1.35Z"/><path class="cls-14" d="M782.53,446.25l-.23,3.63a1.76,1.76,0,0,0,.51,1.24,1.76,1.76,0,0,0,2.48,0,2,2,0,0,0,.51-1.24l.23-3.63a1.81,1.81,0,0,0-.52-1.24,1.75,1.75,0,0,0-2.47,0,1.87,1.87,0,0,0-.51,1.24Z"/><path class="cls-14" d="M780.66,361.65l.1,1.43a2,2,0,0,0,.22,1,2,2,0,0,0,.55.85,1.9,1.9,0,0,0,.84.54,2,2,0,0,0,1,.23l.7-.1a2.61,2.61,0,0,0,1.16-.67l.41-.53a2.58,2.58,0,0,0,.36-1.33l-.1-1.43a2,2,0,0,0-.22-1,2.09,2.09,0,0,0-.54-.84,1.88,1.88,0,0,0-.85-.54,2,2,0,0,0-1-.23l-.7.09a2.68,2.68,0,0,0-1.16.68l-.41.53a2.58,2.58,0,0,0-.36,1.33Z"/><path class="cls-14" d="M857.17,522l2,.21a1.18,1.18,0,0,0,.56-.13,1.33,1.33,0,0,0,.76-.76,1.21,1.21,0,0,0,.13-.56,1.46,1.46,0,0,0-.43-1l-.29-.23a1.42,1.42,0,0,0-.73-.19l-2-.21a1,1,0,0,0-.55.12,1.29,1.29,0,0,0-.77.77,1.06,1.06,0,0,0-.12.55,1.45,1.45,0,0,0,.42,1l.29.22a1.46,1.46,0,0,0,.73.2Z"/><path class="cls-14" d="M856.48,525l3.38.21a1.51,1.51,0,0,0,1-.42,1.47,1.47,0,0,0,.42-1,1.45,1.45,0,0,0-.42-1,1.54,1.54,0,0,0-1-.42l-3.38-.21a1.51,1.51,0,0,0-1,.42,1.46,1.46,0,0,0,0,2.05,1.64,1.64,0,0,0,1,.42Z"/><path class="cls-13" d="M888.92,459.6s-4,9.5-1.75,16.15,8.43,4.1,8.43,4.1l4.33-14Z"/><path class="cls-8" d="M747.8,469.86l4,20.19c3.69,19.92,25.61,12.93,38.1,8.14l75.54-38.59h0a24.93,24.93,0,0,0,12.23,5l20,2.39s-4.81,14.93.12,20.62S904,464.93,904,464.93l-8.23-16.52-21.86-7.54h0c-10.68,0-92.08,24.35-92.08,24.35Z"/><path class="cls-8" d="M901.23,485.51h0c18.31,15.43,29.58-5.18,29.58-5.18,1.87-3.78,2.52-13.45-.76-20.73l-27.28-60.48c-3.06-5.92-2.54-11.37,2.66-15.53h0a49,49,0,0,0,17.14-27.29l2.88-12.63-29.59,5.88L893.37,338l-10,7.4-2.11,11.94a72.56,72.56,0,0,0-.31,23.16l13.18,88.92C896,475.87,898.83,482.74,901.23,485.51Z"/><path class="cls-24" d="M909.91,370.18,927.33,308a1.52,1.52,0,0,0-2-1.88L902.6,316.24a1.63,1.63,0,0,0-.91,1.08l-16.12,59.06a1.52,1.52,0,0,0,1.89,1.93l21.39-7A1.67,1.67,0,0,0,909.91,370.18Z"/><path class="cls-25" d="M908.33,368.25l17.11-60.88a1.43,1.43,0,0,0-1.9-1.82L902,315.7a1.68,1.68,0,0,0-.87,1.07l-15.84,57.8a1.43,1.43,0,0,0,1.76,1.86l20.24-7.07A1.62,1.62,0,0,0,908.33,368.25Z"/><polygon class="cls-26" points="917.12 309.32 916.08 312.76 906.95 316.52 908.06 312.86 917.12 309.32"/><path class="cls-8" d="M883.33,345.42s1.26-10.64,6.62-10.64,12.47,2,12.47,2a6,6,0,0,1-5.53,6.48C890.86,344.14,883.33,345.42,883.33,345.42Z"/><path class="cls-8" d="M925.45,343.67s2.31-11.17-1.49-12.06c-14.07-3.3-15.81,4.63-14,6.92,4.79,6.19-5.94,10.82.06,21.52,1.8,3.21,2,11,2,11"/><polyline class="cls-11" points="885.51 429.05 863.28 429.05 860.95 441.71"/><line class="cls-27" x1="869.62" y1="432.19" x2="873.27" y2="420.52"/><path class="cls-14" d="M820.18,289.37a12.27,12.27,0,0,1,9.15-.22,1.39,1.39,0,0,0,1.7-1,1.41,1.41,0,0,0-1-1.7,14.74,14.74,0,0,0-10.62.21,1.42,1.42,0,0,0-1,1.7,1.38,1.38,0,0,0,1.69,1Z"/><ellipse class="cls-10" cx="851.55" cy="284.62" rx="2.48" ry="2.74" transform="translate(-16.41 54.86) rotate(-3.65)"/><path class="cls-10" d="M883.52,398.15s8.31,6.09,17.74-3l3.29,7.89s-11.6,10-20,2.31Z"/><path class="cls-28" d="M492,930.58l49.21-7.12A41.85,41.85,0,0,1,585,947h0a41.84,41.84,0,0,1-22.9,57l-111.25,42.5H340.16l-102.33-42.65a41.85,41.85,0,0,1-22.64-54.47l.87-2.13A41.85,41.85,0,0,1,262.72,922l44.7,8.61Z"/><path class="cls-29" d="M343.36,1037.05c-.07-10.91,2.81-28.74,19.83-41.3a5.52,5.52,0,0,0-1.36-9.63l-19.67-8.27a6.46,6.46,0,0,0-6.25.68c-7.59,5.53-26.55,22.35-23.14,50.59a5.74,5.74,0,0,0,3.35,4.49l18.4,8.59C338.61,1044.11,343.39,1041.31,343.36,1037.05Z"/><path class="cls-8" d="M364.32,994l121.92,39s54.87-24.66,71.44-21.05,4.77,34.54-7,42.71-78,3.78-78,3.78l-132.48-11.93S330,1010.1,364.32,994Z"/><path class="cls-8" d="M440.59,985.59l-121.93,39s-54.87-24.65-71.43-21-3.55,33,7,42.71c16.11,14.79,78,3.78,78,3.78l132.48-11.93S475,1001.75,440.59,985.59Z"/><path class="cls-29" d="M465.13,1035.64c.78-10.67-.28-34.26-22.07-48.81a3.1,3.1,0,0,1,.4-5.42l22.85-10.29c2.62-1.17,3.77-1.06,4.67-.41,6,4.32,27.61,22.31,23.21,54.14a3.1,3.1,0,0,1-1.69,2.33l-22.9,11.44A3.09,3.09,0,0,1,465.13,1035.64Z"/><path class="cls-3" d="M342.5,733.15l-30.88,11.72a49.8,49.8,0,0,0-29.56,30.78l-26.3,78.8,48.05,15L324.44,826l3,99.73-23.62,4.83s46.86,40.67,92.28,35,100.84-35,100.84-35l-37.6-6.16L466.1,818l24.14,36.47,50.59-23.75L510.5,774.83C503,761,488,745.81,472.93,741.19l-39.76-8Z"/><ellipse class="cls-10" cx="389.57" cy="629.32" rx="49.41" ry="52.92"/><path class="cls-8" d="M362.63,602.78c-9,11-14.75,27.45-14.75,45.86,0,33.06,18.48,59.87,41.27,59.87s41.28-26.81,41.28-59.87c0-18.41-5.74-34.88-14.75-45.86Z"/><ellipse class="cls-8" cx="344.39" cy="664.22" rx="8.45" ry="13.66" transform="translate(-153.29 105.55) rotate(-14.29)"/><ellipse class="cls-8" cx="432.18" cy="667.75" rx="13.66" ry="8.45" transform="translate(-306.68 962.28) rotate(-78.82)"/><path class="cls-8" d="M368.16,695.83v31.43l-25.66,5.89s29.45,27.48,55.92,20.1,34.75-20.1,34.75-20.1l-22.45-5.26V696.45Z"/><path class="cls-8" d="M297.8,867.62l-11,25.94A21.39,21.39,0,0,1,259,905h0a21.38,21.38,0,0,1-11.94-27.23l8.66-23.34Z"/><path class="cls-8" d="M288.43,889.78s-9.41,26.48-32.66,13.55-19-113.41-19-113.41-19.64-15.37-21.14-29.57-1.49-26.27,3.49-27.2,29.84,17,29.84,17,6.47-6,9.95,0-3.12,38.31-3.12,38.31Z"/><path class="cls-10" d="M361.59,627.51a15.3,15.3,0,0,1,11.12-.16,2.48,2.48,0,0,0,3.18-1.22l.1-.23a2,2,0,0,0-.65-2.34A13,13,0,0,0,367,621c-4.7,0-7.14,2-8.26,3.31a1.93,1.93,0,0,0-.16,2.28h0A2.47,2.47,0,0,0,361.59,627.51Z"/><path class="cls-10" d="M404.77,627.51a15.29,15.29,0,0,1,11.12-.16,2.48,2.48,0,0,0,3.18-1.22l.09-.23a2,2,0,0,0-.65-2.34,13,13,0,0,0-8.32-2.59c-4.71,0-7.15,2-8.27,3.31a1.94,1.94,0,0,0-.16,2.28h0A2.49,2.49,0,0,0,404.77,627.51Z"/><path class="cls-13" d="M368.16,700.18s24.74,9.54,42.56-.49v7.92s-20.09,19.64-42.56,7.12Z"/><path class="cls-24" d="M221.33,784.88,223,709.79a1.88,1.88,0,0,1,3.07-1.41l23.12,18.92a1.85,1.85,0,0,1,.69,1.51l-2,71.15a1.88,1.88,0,0,1-2.91,1.52l-22.71-15A1.86,1.86,0,0,1,221.33,784.88Z"/><path class="cls-30" d="M223.87,783.26l1.52-73.51a1.76,1.76,0,0,1,2.89-1.38L250,726.9a1.85,1.85,0,0,1,.64,1.47L248.72,798a1.76,1.76,0,0,1-2.74,1.48l-21.32-14.67A1.87,1.87,0,0,1,223.87,783.26Z"/><path class="cls-14" d="M360.48,643.65a16.34,16.34,0,0,0,17-.1,2.27,2.27,0,1,0-2.29-3.93,13.67,13.67,0,0,1-1.59.88l-.09,0-.42.17-.87.28a13.41,13.41,0,0,1-1.78.38c.42-.06-.45,0-.53,0-.3,0-.61,0-.91,0a12.27,12.27,0,0,1-1.82-.1c.42,0-.44-.08-.52-.1-.3-.06-.6-.13-.89-.21s-.58-.17-.87-.27c-.07,0-.85-.34-.51-.19a13.8,13.8,0,0,1-1.61-.86,2.28,2.28,0,0,0-2.3,3.93Z"/><path class="cls-14" d="M402,643.65a16.34,16.34,0,0,0,17-.1,2.28,2.28,0,0,0-2.3-3.93,13.67,13.67,0,0,1-1.59.88l-.09,0-.42.17-.87.28a13.41,13.41,0,0,1-1.78.38c.42-.06-.45,0-.53,0-.3,0-.61,0-.91,0a12.27,12.27,0,0,1-1.82-.1c.42,0-.44-.08-.52-.1-.3-.06-.6-.13-.89-.21s-.58-.17-.87-.27c-.07,0-.85-.34-.51-.19a13.8,13.8,0,0,1-1.61-.86,2.27,2.27,0,0,0-2.29,3.93Z"/><path class="cls-16" d="M383.26,663.67a18.94,18.94,0,0,0,14,0c1-.37.54-1.94-.43-1.56a17.63,17.63,0,0,1-13.11,0c-1-.39-1.39,1.18-.43,1.56Z"/><path class="cls-16" d="M395.53,633a27.76,27.76,0,0,0-2.69,9.7,22.84,22.84,0,0,0,2.64,11c.46.94,1.86.12,1.41-.82a20.94,20.94,0,0,1-2.42-10.18,25.36,25.36,0,0,1,2.46-8.88c.41-1-1-1.77-1.4-.82Z"/><path class="cls-16" d="M338.56,661.52a6.36,6.36,0,0,1,5.61.66,6.3,6.3,0,0,1,2.69,4.33.84.84,0,0,0,.81.81.81.81,0,0,0,.81-.81,8,8,0,0,0-3.38-5.65,7.92,7.92,0,0,0-7-.91c-1,.34-.55,1.91.44,1.57Z"/><path class="cls-16" d="M430.67,669a7.88,7.88,0,0,1,7.13-6.87c1-.06,1-1.69,0-1.63a9.53,9.53,0,0,0-8.75,8.5.82.82,0,0,0,.81.81.83.83,0,0,0,.81-.81Z"/><path class="cls-16" d="M371.79,675.68a51.58,51.58,0,0,0,37-1.52c1-.41.13-1.81-.82-1.4a49.91,49.91,0,0,1-35.72,1.36c-1-.34-1.42,1.22-.44,1.56Z"/><path class="cls-16" d="M385.16,685.56a17.27,17.27,0,0,0,10.19-.31c1-.34.56-1.91-.43-1.57a15.68,15.68,0,0,1-9.32.32.81.81,0,0,0-.44,1.56Z"/><path class="cls-8" d="M219.09,733.15s8.27-7.42,14.76,0c3.35,3.81,2.78,12.89,1.45,20.8a13.37,13.37,0,0,1-16.21,10.81h0"/><path class="cls-8" d="M258,748.86s-8.6-12-10.81-10.29a6.46,6.46,0,0,0-1.39,7.84c1.4,2.44,5.57,12,6.67,13"/><path class="cls-8" d="M493.38,853l19.17,33.71-58.86,31.06a5.07,5.07,0,0,1-6.71-1.87c-2.72-4.57-8-11.24-15.6-11.7-16.65-1-25.19,3.27-24.73,7.43S427,913,427,913l.36,11.41-11.24,4.12s-5.58-16.94-12.79-17.37c-7.7-.45,4.39,23.82,4.39,23.82a28.06,28.06,0,0,1-13.24,3.65c-3.08,0-13.48,5.5-3.76,14.46s39.72,3.18,39.72,3.18l26.93-17.64,81.8-19.88c27-12.15,22.37-29.14,18.17-42.21l-19.39-44.49Z"/><path class="cls-16" d="M242.72,1016.86a42.88,42.88,0,0,0,14.49,2c1.05,0,1.05-1.66,0-1.62a41.36,41.36,0,0,1-14.06-1.92c-1-.31-1.42,1.25-.43,1.57Z"/><path class="cls-16" d="M243.37,1029.19l14.28,2.59c1,.19,1.46-1.37.43-1.56l-14.28-2.6c-1-.18-1.46,1.38-.43,1.57Z"/><path class="cls-16" d="M250.08,1039.6l13,1.3c1,.1,1-1.52,0-1.62l-13-1.3c-1-.11-1,1.52,0,1.62Z"/><path class="cls-16" d="M257,1047.91l11.68,2c1,.17,1.46-1.39.44-1.56l-11.68-2c-1-.17-1.46,1.39-.44,1.56Z"/><path class="cls-16" d="M564,1020.65c-5.51,1.63-11.38.94-16.89,2.57a.81.81,0,0,0,.43,1.57c5.51-1.63,11.38-.94,16.89-2.57a.81.81,0,0,0-.43-1.57Z"/><path class="cls-16" d="M564,1030.75c-6.17.53-11.86,3.42-18,4-1,.09-1,1.72,0,1.63,6.17-.54,11.86-3.43,18-4,1-.09,1-1.71,0-1.62Z"/><path class="cls-16" d="M559.45,1040.81l-16.27,3.66c-1,.23-.59,1.79.43,1.56l16.28-3.65c1-.23.58-1.79-.44-1.57Z"/><path class="cls-16" d="M552.22,1050.07,538,1052.8c-1,.2-.59,1.76.43,1.57l14.25-2.74c1-.19.59-1.76-.43-1.56Z"/><polygon class="cls-31" points="234.5 714.73 234.5 718.9 243.91 726.16 243.91 721.71 234.5 714.73"/><path class="cls-32" d="M473.33,971l52.45-24.84c.94-.44.12-1.84-.82-1.4l-52.44,24.84c-.95.44-.12,1.84.81,1.4Z"/><path class="cls-32" d="M265,946.36l53.32,26.87,15.1,7.62c.93.47,1.75-.93.82-1.4L280.9,952.58,265.79,945c-.93-.47-1.75.93-.82,1.4Z"/><path class="cls-14" d="M453.32,918.22,459,937.83a1.51,1.51,0,0,0,1.81,1.06l7.8-1.89a1.52,1.52,0,0,0,1.09-1.91l-6.4-21.43a1.52,1.52,0,0,0-2.16-.91l-7,3.71A1.53,1.53,0,0,0,453.32,918.22Z"/><ellipse class="cls-33" cx="462.11" cy="928.97" rx="7.61" ry="7.48"/></g></svg>