<svg xmlns="http://www.w3.org/2000/svg" xmlns:xlink="http://www.w3.org/1999/xlink" viewBox="0 0 1200 1200"><defs><style>.cls-1,.cls-13{fill:none;}.cls-2{fill:#243550;}.cls-3{fill:#e4ebf7;}.cls-16,.cls-4{fill:#71c1ac;}.cls-5{fill:#60a298;}.cls-6{fill:#fff;}.cls-7{clip-path:url(#clip-path);}.cls-8{fill:#12100b;}.cls-9{fill:#875d34;}.cls-10{fill:#705126;}.cls-11{fill:#704526;}.cls-12{fill:#775247;}.cls-13{stroke:#f7b503;stroke-miterlimit:10;stroke-width:7.97px;}.cls-14{fill:#c3c3c3;}.cls-15{fill:#4c4c4b;}.cls-16{font-size:14.6px;font-family:OpenSans-Semibold, Open Sans;font-weight:600;}.cls-17{fill:#c0e3da;}.cls-18{fill:#f7b503;}.cls-19{fill:#1d1d1b;}</style><clipPath id="clip-path"><path class="cls-1" d="M1142.06,775.47c-.35,1.44-.65,2.83-1,4.26-5.87,23-17.3,47.63-35,73.48l-89.21-.26h-4.7L530.84,851.6h-5.6L432,851.34l-6,0-296.18-.83S52.86,760,155.84,675.36C204.12,635.73,269,641.85,318.4,636.73c2.13-.26,4.26-.48,6.35-.79,52.36-6.82,84.64-30.07,54.88-144.13a153,153,0,0,1-4.78-47c.08-2.18.26-4.35.48-6.52C385.19,332.47,501.25,241.08,635,295.18c2.44,1,4.87,2,7.3,3.09,29.55,13.08,59.88,33.28,90,62.05,25.24,24.07,47.23,45.84,66.74,65.61l6.56,6.7C899.59,528.57,932,575,982.2,602.31c1.34.7,2.65,1.44,4,2.13,14.55,7.47,30.67,13.47,50.27,18.69,21.12,5.6,39.63,13.68,55.1,23.85q2,1.31,3.78,2.61C1135.93,678.14,1154.23,722.11,1142.06,775.47Z"/></clipPath></defs><g id="Calque_1" data-name="Calque 1"><path class="cls-2" d="M1142.06,775.47c-.35,1.44-.65,2.83-1,4.26-5.87,23-17.3,47.63-35,73.48l-89.21-.26h-4.7L530.84,851.6h-5.6L432,851.34l-6,0-296.18-.83S52.86,760,155.84,675.36C204.12,635.73,269,641.85,318.4,636.73c2.13-.26,4.26-.48,6.35-.79,52.36-6.82,84.64-30.07,54.88-144.13a153,153,0,0,1-4.78-47c.08-2.18.26-4.35.48-6.52C385.19,332.47,501.25,241.08,635,295.18c2.44,1,4.87,2,7.3,3.09,29.55,13.08,59.88,33.28,90,62.05,25.24,24.07,47.23,45.84,66.74,65.61l6.56,6.7C899.59,528.57,932,575,982.2,602.31c1.34.7,2.65,1.44,4,2.13,14.55,7.47,30.67,13.47,50.27,18.69,21.12,5.6,39.63,13.68,55.1,23.85q2,1.31,3.78,2.61C1135.93,678.14,1154.23,722.11,1142.06,775.47Z"/><path class="cls-3" d="M1005.7,356.34c-78.07-59.33-179.43-45.41-159,0s108.51,162.36,170.91,141.9S1057.44,395.67,1005.7,356.34Z"/><path class="cls-4" d="M265.43,571.83s-8.81,9.42-13,50.69c-4.1,40.89-39.62,61.76-67.74,63.93-.19,0-.38,0-.57,0L184,686l-1-3.91-7.16-26.34s-8.85-72.22,86.45-83.57C263.31,572.07,264.34,571.92,265.43,571.83Z"/><path class="cls-4" d="M191.82,849.22s1.76-212-34.16-280.9S45.77,487.64,45.77,487.64,127,508.84,157.66,590.7s21.2,258.52,21.2,258.52Z"/><path class="cls-4" d="M180.06,809.17C63.27,808.47,61.67,678.82,61.67,671.66v-.29C88.81,711.89,184.73,708.4,180.06,809.17Z"/><path class="cls-5" d="M180.06,809.17C63.27,808.47,61.67,678.82,61.67,671.66c.24,5.65,4.76,91.63,57.15,106.37C173,793.25,180.06,809.17,180.06,809.17Z"/><path class="cls-4" d="M291.34,751.46c-13.52,37.08,6.45,74.77-27.66,97.76h-59.5S200.65,766.21,291.34,751.46Z"/><path class="cls-5" d="M291.34,751.46c-13.52,37.08,6.45,74.77-27.66,97.76H241.17C270.28,824.2,273.86,779.21,291.34,751.46Z"/><path class="cls-5" d="M265.43,571.83s-8.81,9.42-13,50.69c-4.1,40.89-39.62,61.76-67.74,63.93L184,686l-4-2.83c1-.33,2-.7,2.92-1.08,58-21.86,58.51-76.23,79.29-109.91C263.31,572.07,264.34,571.92,265.43,571.83Z"/><path class="cls-4" d="M175.78,628l-.38.1c-5.89,1.32-74.34,15.45-88.62-52.44C72.84,509.12,49,490,46,487.83l-.14-.14C176.72,508.56,175.78,628,175.78,628Z"/><path class="cls-5" d="M175.78,628l-.38.1c-5.89,1.32-74.34,15.45-88.62-52.44C72.84,509.12,49,490,46,487.83,110.72,522.08,79.48,617.53,175.78,628Z"/><path class="cls-6" d="M928.91,777s12.56-15.31,6.28-31c-3.94-9.84-10.6-9.42-25.13-27.09S883,657.23,928.91,664.3s58.89.79,50.64-11.38-36.15-30.23-25.34-54.18,52.43-15.71,92.87-12.17,27.08-14.14,51.82-2.36,24.73,79.31-32.19,75-67.53-1.3-65.17,19.57,12.17,56.59-24.74,43.05-26.78,4-20,18.55c8.64,18.55-12.56,36.6-12.56,36.6Z"/><path class="cls-6" d="M924.59,613.27c-12-2.4-24.74-22-34.94-4.71-8.23,13.92,16.88,34.55,36.12,26.3C941,628.34,940.29,616.41,924.59,613.27Z"/><path class="cls-5" d="M979.55,840.57v-9.42a27.76,27.76,0,0,0,26.56-20l1.59-5.49a11,11,0,0,0-10.58-14.07h-7.36v-9.42h7.36a20.43,20.43,0,0,1,19.63,26.1l-1.59,5.5A37.23,37.23,0,0,1,979.55,840.57Z"/><path class="cls-4" d="M995.46,777.43l-1.37,9.47-7.11,49a15.56,15.56,0,0,1-15.36,13.34h-35.1a15.5,15.5,0,0,1-15.36-13.38l-6.87-49L913,777.38a8.25,8.25,0,0,1,8.19-9.42h66.1A8.3,8.3,0,0,1,995.46,777.43Z"/><path class="cls-5" d="M995.46,777.43l-1.37,9.47h-79.8L913,777.38a8.25,8.25,0,0,1,8.19-9.42h66.1A8.3,8.3,0,0,1,995.46,777.43Z"/><circle class="cls-4" cx="368.48" cy="373.4" r="68.51" transform="translate(-79.03 647.15) rotate(-76.83)"/><circle class="cls-5" cx="368.48" cy="373.4" r="50.4"/><path class="cls-6" d="M396.86,371.11H372V337.56a4.79,4.79,0,1,0-9.58,0v42.35h34.41a4.4,4.4,0,1,0,0-8.8Z"/><g class="cls-7"><path class="cls-6" d="M534.45,556.05l-69.88,23.79a83.35,83.35,0,0,0-49.49,51.55L371,763.33l80.46,25.21L486,715.73l5,167-39.54,8.08S530,958.92,606,949.36s168.85-58.55,168.85-58.55l-63-10.31,11.33-178.23L762,789.82l81.72-26.49L797.58,630c-12.58-23.16-37.71-48.6-62.92-56.32l-84.2-17.61Z"/><path class="cls-8" d="M668.05,406.69c0,46.75-30,84.65-73.69,84.65s-74.49-37.9-74.49-84.65S534.77,322,594.36,322C653,322,668.05,359.94,668.05,406.69Z"/><path class="cls-9" d="M545.56,372.06c-14.42,17.57-17.89,36.07-17.89,65.52,0,52.9,29.56,95.78,66,95.78s66-42.88,66-95.78c0-29.45-3.83-48.51-18.25-66.08l-49.88,9.76Z"/><ellipse class="cls-9" cx="522.08" cy="446.43" rx="13.52" ry="21.86" transform="translate(-94.03 142.67) rotate(-14.29)"/><ellipse class="cls-9" cx="662.53" cy="452.07" rx="21.86" ry="13.52" transform="translate(90.59 1014.39) rotate(-78.82)"/><path class="cls-9" d="M559.23,497.73v52.64l-24.78,5.68s19,30.45,48.7,38c4.6,1.17,6.63,63.19,11.72,63,3.93-.11,10.84-62.08,15-63.18,31.17-8.21,41.65-37.53,41.65-37.53l-21.06-4.94V498.78Z"/><path class="cls-9" d="M441.42,785.38l-18.37,43.43A35.78,35.78,0,0,1,376.53,848h0a35.78,35.78,0,0,1-20-45.59L371,763.33Z"/><path class="cls-9" d="M773.34,785.38l18.37,43.43A35.79,35.79,0,0,0,838.23,848h0a35.79,35.79,0,0,0,20-45.59l-14.51-39.08Z"/><path class="cls-8" d="M550.84,421.52a24.49,24.49,0,0,1,17.79-.26,4,4,0,0,0,5.09-1.95l.15-.37a3.18,3.18,0,0,0-1-3.73c-2.22-1.76-6.5-4.18-13.31-4.15-7.54,0-11.44,3.16-13.23,5.3A3.1,3.1,0,0,0,546,420h0A4,4,0,0,0,550.84,421.52Z"/><path class="cls-8" d="M619.91,421.52a24.46,24.46,0,0,1,17.78-.26,4,4,0,0,0,5.09-1.95l.15-.37a3.18,3.18,0,0,0-1-3.73c-2.21-1.76-6.5-4.18-13.31-4.15-7.53,0-11.44,3.16-13.23,5.3a3.1,3.1,0,0,0-.25,3.65h0A4,4,0,0,0,619.91,421.52Z"/><path class="cls-10" d="M559.23,517.86s37,26.24,71.27-.82V530.3s-33.64,32.89-71.27,11.92Z"/><path class="cls-11" d="M584.52,478.68a26.86,26.86,0,0,0,19.68,0,2.56,2.56,0,0,0,1.74-3.06,2.5,2.5,0,0,0-3.06-1.74,22.68,22.68,0,0,1-17,0,2.5,2.5,0,0,0-3.06,1.74,2.55,2.55,0,0,0,1.74,3.06Z"/><path class="cls-11" d="M603.93,429.9c-2.16,4.94-4,10.06-4.28,15.49-.31,6.16,1.55,12.08,4.22,17.57.7,1.44,2.84.18,2.15-1.26-2.48-5.1-4.17-10.59-3.88-16.31.25-5,2-9.71,3.94-14.23.64-1.45-1.51-2.72-2.15-1.26Z"/><path class="cls-11" d="M512.74,442.06a10.2,10.2,0,0,1,9,1.07,10.09,10.09,0,0,1,4.34,7,1.29,1.29,0,0,0,1.24,1.25c.61,0,1.34-.58,1.25-1.25a12.86,12.86,0,0,0-5.38-9,12.65,12.65,0,0,0-11.13-1.45c-1.5.53-.85,2.93.67,2.41Z"/><path class="cls-11" d="M660.05,454a12.66,12.66,0,0,1,11.46-11c1.59-.1,1.6-2.59,0-2.49a15.18,15.18,0,0,0-14,13.53,1.25,1.25,0,0,0,2.49,0Z"/><path class="cls-12" d="M585.17,514.24a27.59,27.59,0,0,0,16.29-.5c1.57-.54.9-3.05-.69-2.5a25,25,0,0,1-14.91.5,1.3,1.3,0,0,0-.69,2.5Z"/><ellipse class="cls-8" cx="560.2" cy="443.8" rx="3.35" ry="5.53"/><ellipse class="cls-8" cx="624.95" cy="442.75" rx="3.35" ry="5.53"/><path class="cls-8" d="M572,526.21s26.48,7.59,42.61,0c0,0-14.21,15.83-22,15.71C585.11,541.8,572,526.21,572,526.21Z"/><path class="cls-6" d="M566.69,490.26s26,5.43,53.15,0C619.84,490.26,591.41,518.19,566.69,490.26Z"/><path class="cls-13" d="M536.25,555.64S542,575.15,583.15,594l11.72,63,12.51-62.47s34.65-14.2,45.32-39"/><rect class="cls-14" x="563" y="629.47" width="77.66" height="135.47" rx="3.47"/><rect class="cls-15" x="565.15" y="634.72" width="73.37" height="132.12" rx="3.47"/><path class="cls-9" d="M361.39,800.63s-14.79,42,28.11,51.53,139.31-116,139.31-116,40.73,2.69,57-12.81,28.53-30,23.1-36.5-46-10.63-46-10.63V660.85c-31.42,3.15-57.05,53-57.05,53Z"/><path class="cls-9" d="M853.39,800.65s14.76,42-28.12,51.52S686.08,736.29,686.08,736.29s-40.71,2.7-57-12.77-28.5-30-23.07-36.47,34.66-10.29,34.66-10.29V665.05c14.33-8,68.28,48.93,68.28,48.93Z"/><path class="cls-4" d="M657,620l6.71-20a50.24,50.24,0,0,1-3.76-6c-12.93-24.28-4-54.21,19.89-66.71s53.85-2.9,66.78,21.39,4,54.22-19.89,66.72a49,49,0,0,1-51.14-3.67Z"/><path class="cls-2" d="M705.19,591.24h-9.05a1.2,1.2,0,0,0-1.15,1.57,6,6,0,0,0,11.35,0A1.2,1.2,0,0,0,705.19,591.24Z"/><path class="cls-2" d="M717.11,579.22v-9.87a12.71,12.71,0,0,1-10.44-20,16.5,16.5,0,0,0-2.19-.72v-1.75a3.85,3.85,0,0,0-7.7,0v1.74a16.57,16.57,0,0,0-12.69,16.06v14.46h0l-5.56,5.19c-1.2,1.66.12,3.85,2.31,3.85H721c2.26,0,3.56-2.32,2.22-4Z"/><circle class="cls-6" cx="717.12" cy="556.63" r="11.27"/><text class="cls-16" transform="translate(712.84 561.66)">1</text><polygon class="cls-17" points="552.68 619.86 527.74 583.38 512.58 583.79 548.07 621.45 552.68 619.86"/><polygon class="cls-17" points="558.2 615.89 549.53 581.73 559.14 576.69 562.2 614.52 558.2 615.89"/><polygon class="cls-17" points="543.29 626.53 510.87 609.32 510.31 620.69 542.32 629.96 543.29 626.53"/><circle class="cls-18" cx="769.12" cy="448.9" r="5.09"/><circle class="cls-6" cx="394.68" cy="417.96" r="7.71"/><circle class="cls-18" cx="349.75" cy="596.47" r="5.94"/><circle class="cls-18" cx="803.17" cy="510.21" r="13.75"/><ellipse class="cls-19" cx="576.18" cy="646.43" rx="2.99" ry="2.46"/></g><rect class="cls-5" x="101.72" y="849.22" width="1041.15" height="22.38"/></g></svg>